<?xml version="1.0" encoding="utf-8"?>
<!-- Generator: Adobe Illustrator 15.0.2, SVG Export Plug-In . SVG Version: 6.00 Build 0)  -->
<!DOCTYPE svg PUBLIC "-//W3C//DTD SVG 1.1//EN" "http://www.w3.org/Graphics/SVG/1.1/DTD/svg11.dtd">
<svg version="1.1" id="Layer_1" xmlns="http://www.w3.org/2000/svg" xmlns:xlink="http://www.w3.org/1999/xlink" x="0px" y="0px"
	 width="350px" height="350px" viewBox="0 0 350 350" enable-background="new 0 0 350 350" xml:space="preserve">
<g id="shadow">
	
		<linearGradient id="outer_circle_3_" gradientUnits="userSpaceOnUse" x1="440.9395" y1="-60.7568" x2="440.9395" y2="-386.999" gradientTransform="matrix(1 0 0 -1 -265.5 -38)">
		<stop  offset="0" style="stop-color:#8F9AA8"/>
		<stop  offset="1" style="stop-color:#3D4857"/>
	</linearGradient>
	<path id="outer_circle_1_" fill="url(#outer_circle_3_)" fill-opacity="0.15" d="M339.616,165.146
		c2.787,14.516-10.117,21.756-10.117,35.249c0,13.488,6.745,23.062,2.828,34.049c-3.917,10.988-15.773,15.23-22.628,27.307
		c-6.854,12.075-2.575,21.648-11.352,31.439c-8.774,9.791-19.109,6.348-30.75,15.521c-11.64,9.175-13.599,17.878-21.867,23.426
		c-8.268,5.55-25.021,0.979-36.879,2.829c-11.857,1.85-20.781,13.926-33.508,14.033c-12.728,0.107-19.582-11.969-32.092-13.816
		c-12.512-1.85-23.281,2.829-34.704-0.979c-11.423-3.807-14.904-17.405-23.607-24.041c-8.703-6.637-23.973-8.922-32.602-16.646
		c-8.629-7.724-3.625-18.711-10.696-30.679c-7.072-11.966-19.69-16.862-23.933-29.698c-4.243-12.838,3.698-18.168,3.154-29.918
		c-0.544-11.748-11.097-25.564-9.9-37.205c1.197-11.641,10.226-13.49,15.122-26.109c4.896-12.619,0.218-28.503,5.331-37.75
		c5.113-9.247,21.54-13.163,28.938-22.521c7.397-9.354,6.092-18.385,15.883-26.871c9.792-8.485,26-4.459,36.118-9.791
		s15.675-16.862,27.909-19.69c12.234-2.829,19.348,6.636,35.101,6.418c15.753-0.217,17.493-8.78,33.92-6.294
		c16.427,2.486,16.971,14.998,30.787,20.872c13.817,5.875,20.995-1.631,32.311,5.766c11.314,7.398,10.009,21.542,18.712,30.243
		c8.703,8.704,19.909,9.574,27.088,20.019c7.181,10.443,0.979,21.758,4.896,34.812C326.996,148.175,336.85,150.735,339.616,165.146z
		"/>
</g>
<g id="outer_circle_2_">
	
		<linearGradient id="outer_circle_4_" gradientUnits="userSpaceOnUse" x1="440.0703" y1="-39" x2="440.0703" y2="-365.2422" gradientTransform="matrix(1 0 0 -1 -265.5 -38)">
		<stop  offset="0" style="stop-color:#8F9AA8"/>
		<stop  offset="1" style="stop-color:#3D4857"/>
	</linearGradient>
	<path id="outer_circle" fill="url(#outer_circle_4_)" d="M338.746,143.389c2.788,14.516-10.117,21.758-10.117,35.248
		c0,13.488,6.745,23.062,2.828,34.051c-3.916,10.987-15.774,15.23-22.628,27.307c-6.854,12.074-2.575,21.648-11.351,31.438
		c-8.775,9.793-19.109,6.35-30.75,15.522c-11.641,9.174-13.6,17.877-21.867,23.425c-8.269,5.549-25.021,0.979-36.879,2.829
		c-11.857,1.849-20.78,13.925-33.507,14.033s-19.582-11.968-32.092-13.816c-12.51-1.85-23.281,2.829-34.704-0.979
		c-11.423-3.807-14.904-17.405-23.607-24.041c-8.703-6.637-23.973-8.922-32.602-16.646c-8.629-7.725-3.625-18.712-10.696-30.679
		c-7.071-11.967-19.69-16.863-23.933-29.699c-4.243-12.838,3.699-18.168,3.154-29.917c-0.544-11.75-11.097-25.566-9.9-37.206
		c1.197-11.641,10.227-13.49,15.122-26.109c4.896-12.619,0.218-28.503,5.331-37.749c5.113-9.248,21.54-13.164,28.938-22.52
		c7.397-9.356,6.092-18.385,15.883-26.871c9.792-8.485,26-4.459,36.118-9.791c10.117-5.331,15.676-16.862,27.909-19.69
		c12.234-2.828,19.348,6.636,35.101,6.418c15.752-0.218,17.493-8.78,33.92-6.294c16.429,2.487,16.972,14.998,30.788,20.872
		c13.816,5.875,20.997-1.631,32.311,5.766c11.313,7.398,10.008,21.541,18.713,30.243c8.702,8.703,19.907,9.573,27.087,20.018
		c7.18,10.443,0.979,21.758,4.896,34.812C326.127,126.417,335.98,128.978,338.746,143.389z"/>
	<path id="right_large_circle_fraction" fill="none" stroke="#889FB0" stroke-miterlimit="10" d="M305.705,106.896
		c7.311,17.154,11.356,36.033,11.356,55.857c0,18.291-3.444,35.779-9.721,51.849"/>
	<path id="right_medium_circle_fraction" fill="none" stroke="#889FB0" stroke-miterlimit="10" d="M302.101,108.649
		c7.058,16.622,10.962,34.907,10.962,54.104c0,17.771-3.346,34.757-9.44,50.367"/>
	<path id="right_small_circle_fraction" fill="none" stroke="#889FB0" stroke-miterlimit="10" d="M298.513,110.46
		c6.786,16.076,10.537,33.746,10.537,52.293c0,17.195-3.225,33.638-9.104,48.755"/>
	<path id="left_large_circle_fraction" fill="none" stroke="#889FB0" stroke-miterlimit="10" d="M43.494,219.195
		c-7.469-17.309-11.607-36.394-11.607-56.442c0-17.418,3.124-34.106,8.84-49.535"/>
	<path id="left_medium_circle_fraction" fill="none" stroke="#889FB0" stroke-miterlimit="10" d="M46.839,216.855
		c-7.058-16.621-10.963-34.907-10.963-54.104c0-16.731,2.965-32.771,8.401-47.619"/>
	<path id="left_small_circle_fraction" fill="none" stroke="#889FB0" stroke-miterlimit="10" d="M50.15,214.359
		c-6.605-15.893-10.251-33.324-10.252-51.606c0-16.15,2.845-31.637,8.062-45.984"/>
	<g>
		<path fill="#D6DDE0" d="M48.571,98.55c0.931,0.449,1.572,1.211,1.852,2.146c0.906-0.363,1.929-0.321,2.86,0.127l1.354,0.653
			c1.806,0.871,2.565,3.046,1.708,4.824l-1.144,2.37c-0.245,0.508-0.858,0.699-1.338,0.467l-12.16-5.866
			c-0.508-0.245-0.712-0.831-0.467-1.338l1.143-2.37c0.857-1.778,3.032-2.537,4.838-1.666L48.571,98.55z M46.345,99.703
			c-0.818-0.395-1.78-0.059-2.161,0.731l-0.708,1.467l4.26,2.055l0.708-1.467c0.381-0.79,0.045-1.752-0.745-2.133L46.345,99.703z
			 M50.25,103.36l-0.708,1.467l4.26,2.055l0.708-1.467c0.381-0.79,0.045-1.752-0.745-2.133l-1.354-0.653
			C51.593,102.234,50.631,102.57,50.25,103.36z"/>
		<path fill="#D6DDE0" d="M53.826,86.254l7.082,4.278c1.717,1.037,2.269,3.275,1.248,4.965c-1.037,1.717-3.274,2.269-4.991,1.232
			l-7.082-4.278c-1.69-1.021-2.242-3.259-1.205-4.976C49.898,85.785,52.136,85.233,53.826,86.254z M52.789,87.971
			c-0.751-0.454-1.741-0.209-2.195,0.542c-0.47,0.778-0.226,1.768,0.525,2.222l7.082,4.278c0.778,0.47,1.768,0.226,2.237-0.552
			c0.454-0.751,0.209-1.741-0.568-2.211L52.789,87.971z"/>
		<path fill="#D6DDE0" d="M61.531,75.294l6.651,4.918c1.612,1.192,1.953,3.472,0.78,5.059c-1.192,1.612-3.471,1.954-5.083,0.761
			l-6.651-4.919c-1.587-1.173-1.928-3.452-0.736-5.064C57.665,74.461,59.944,74.12,61.531,75.294z M60.338,76.906
			c-0.706-0.521-1.713-0.371-2.235,0.335c-0.541,0.73-0.39,1.738,0.316,2.26l6.651,4.919c0.73,0.54,1.738,0.389,2.279-0.341
			c0.521-0.706,0.371-1.713-0.36-2.254L60.338,76.906z"/>
		<path fill="#D6DDE0" d="M71.388,66.113c0.77,0.69,1.175,1.599,1.184,2.575c0.971-0.098,1.942,0.226,2.712,0.916l1.12,1.003
			c1.493,1.338,1.619,3.638,0.302,5.108l-1.756,1.959c-0.376,0.42-1.019,0.433-1.416,0.078l-10.056-9.01
			c-0.42-0.376-0.454-0.996-0.078-1.416l1.756-1.959c1.317-1.47,3.617-1.596,5.11-0.258L71.388,66.113z M68.93,66.603
			c-0.677-0.606-1.694-0.55-2.279,0.103l-1.087,1.213l3.523,3.157l1.087-1.213c0.585-0.653,0.53-1.67-0.124-2.256L68.93,66.603z
			 M71.667,71.2l-1.087,1.213l3.523,3.157l1.087-1.213c0.585-0.653,0.529-1.671-0.124-2.256l-1.12-1.003
			C73.269,70.491,72.252,70.546,71.667,71.2z"/>
		<path fill="#D6DDE0" d="M79.857,55.745l5.62,6.071c1.362,1.472,1.273,3.774-0.175,5.115c-1.472,1.362-3.774,1.273-5.137-0.198
			l-5.62-6.071c-1.341-1.449-1.252-3.751,0.22-5.113C76.213,54.207,78.516,54.296,79.857,55.745z M78.385,57.107
			c-0.596-0.644-1.615-0.683-2.258-0.087c-0.667,0.617-0.707,1.636-0.11,2.279l5.62,6.071c0.617,0.667,1.636,0.706,2.303,0.089
			c0.644-0.596,0.683-1.615,0.066-2.281L78.385,57.107z"/>
		<path fill="#D6DDE0" d="M90.286,47.356l5.027,6.566c1.219,1.592,0.916,3.875-0.651,5.075c-1.592,1.219-3.875,0.916-5.094-0.676
			l-5.027-6.566c-1.2-1.567-0.896-3.851,0.695-5.069C86.803,45.486,89.086,45.79,90.286,47.356z M88.694,48.575
			c-0.533-0.697-1.543-0.831-2.24-0.297c-0.721,0.552-0.855,1.562-0.322,2.259l5.027,6.566c0.552,0.721,1.562,0.855,2.284,0.303
			c0.696-0.533,0.831-1.543,0.278-2.265L88.694,48.575z"/>
		<path fill="#D6DDE0" d="M109.296,48.634c0.142,0.244,0.062,0.543-0.183,0.685l-0.868,0.502c-0.244,0.142-0.543,0.062-0.685-0.183
			l-7.262-12.554c-0.142-0.244-0.062-0.543,0.183-0.685l0.868-0.502c0.217-0.125,0.543-0.061,0.685,0.183L109.296,48.634z"/>
		<path fill="#D6DDE0" d="M115.363,32.684l4.96,10.27c0.109,0.226,0.021,0.547-0.233,0.669l-0.903,0.436
			c-0.254,0.123-0.561-0.008-0.669-0.233l-4.96-10.27c-0.382-0.79-1.344-1.125-2.134-0.744c-0.818,0.395-1.154,1.357-0.772,2.147
			l4.96,10.27c0.109,0.226,0.021,0.547-0.233,0.669l-0.903,0.436c-0.254,0.123-0.561-0.008-0.669-0.233l-4.96-10.27
			c-0.858-1.777-0.1-3.953,1.706-4.825C112.329,30.148,114.504,30.907,115.363,32.684z"/>
		<path fill="#D6DDE0" d="M124.102,25.765l0.362,0.935c0.102,0.263-0.023,0.547-0.286,0.648l-1.314,0.51l4.699,12.12
			c0.09,0.234-0.023,0.546-0.286,0.648l-0.935,0.362c-0.263,0.102-0.558-0.052-0.648-0.286l-4.699-12.12l-1.314,0.509
			c-0.263,0.102-0.547-0.023-0.648-0.286l-0.362-0.935c-0.102-0.263,0.023-0.546,0.286-0.648l4.498-1.744
			C123.716,25.377,124,25.502,124.102,25.765z"/>
		<path fill="#D6DDE0" d="M132.117,24.668l1.355,4.532l2.611-0.781c0.271-0.081,0.543,0.067,0.624,0.337l0.287,0.96
			c0.081,0.27-0.066,0.543-0.337,0.624l-2.611,0.781l1.364,4.562l2.611-0.78c0.271-0.081,0.543,0.066,0.624,0.336l0.287,0.96
			c0.081,0.27-0.066,0.543-0.337,0.624l-3.571,1.067c-0.541,0.162-1.095-0.163-1.248-0.673l-3.867-12.936
			c-0.162-0.54,0.133-1.086,0.673-1.248l3.572-1.068c0.27-0.081,0.543,0.067,0.624,0.337l0.287,0.96
			c0.081,0.27-0.066,0.543-0.336,0.624L132.117,24.668z"/>
		<path fill="#D6DDE0" d="M148.78,23.752c0.209,1.013,0.001,2.016-0.541,2.8c0.808,0.504,1.391,1.312,1.601,2.325l0.946,4.572
			c0.051,0.246-0.113,0.536-0.389,0.593l-0.982,0.203c-0.276,0.057-0.542-0.144-0.593-0.39l-0.946-4.572
			c-0.178-0.859-1.029-1.419-1.889-1.241l-1.565,0.324l1.27,6.137c0.051,0.246-0.144,0.542-0.389,0.593l-0.982,0.203
			c-0.276,0.057-0.542-0.144-0.593-0.39l-2.837-13.716c-0.114-0.552,0.227-1.071,0.779-1.185l2.547-0.527
			c1.964-0.406,3.859,0.866,4.259,2.799L148.78,23.752z M146.511,22.686c-0.178-0.859-1.029-1.419-1.889-1.241l-1.565,0.324
			l0.958,4.634l1.565-0.324c0.859-0.178,1.419-1.03,1.235-1.919L146.511,22.686z"/>
		<path fill="#D6DDE0" d="M161.75,20.506l1.257,11.305c0.031,0.28-0.163,0.522-0.443,0.554l-0.997,0.111
			c-0.28,0.031-0.523-0.163-0.554-0.443l-0.689-6.197l-3.208,0.356l0.689,6.198c0.031,0.28-0.163,0.522-0.443,0.554l-0.997,0.111
			c-0.28,0.031-0.522-0.163-0.554-0.443l-1.257-11.305c-0.218-1.962,1.221-3.762,3.214-3.983
			C159.731,17.104,161.531,18.543,161.75,20.506z M159.756,20.728c-0.097-0.872-0.893-1.509-1.765-1.412
			c-0.903,0.101-1.54,0.896-1.443,1.769l0.346,3.114l3.208-0.356L159.756,20.728z"/>
		<path fill="#D6DDE0" d="M173.121,21.016l-0.021-1.065c-0.017-0.877-0.75-1.584-1.628-1.567c-0.877,0.017-1.584,0.751-1.567,1.628
			l0.158,8.302c0.017,0.877,0.751,1.584,1.628,1.567c0.877-0.017,1.584-0.75,1.567-1.628l-0.022-1.159
			c-0.005-0.282,0.21-0.505,0.492-0.511l1.002-0.019c0.282-0.005,0.505,0.209,0.511,0.492l0.022,1.159
			c0.038,1.974-1.561,3.634-3.534,3.671c-2.005,0.038-3.633-1.56-3.671-3.534L167.9,20.05c-0.037-1.974,1.529-3.633,3.534-3.671
			c1.974-0.038,3.634,1.561,3.671,3.534l0.021,1.065c0.005,0.282-0.21,0.505-0.492,0.511l-1.002,0.019
			C173.349,21.513,173.126,21.298,173.121,21.016z"/>
		<path fill="#D6DDE0" d="M185.589,17.246l-0.058,1.001c-0.016,0.282-0.248,0.488-0.529,0.472l-1.408-0.082l-0.754,12.981
			c-0.014,0.25-0.248,0.488-0.529,0.472l-1-0.058c-0.283-0.016-0.486-0.279-0.473-0.53l0.754-12.981l-1.408-0.082
			c-0.281-0.016-0.488-0.248-0.472-0.529l0.058-1.001c0.018-0.282,0.248-0.488,0.53-0.472l4.817,0.28
			C185.398,16.732,185.605,16.964,185.589,17.246z"/>
		<path fill="#D6DDE0" d="M191.145,32.404c-0.033,0.28-0.277,0.471-0.558,0.437l-0.995-0.121c-0.279-0.034-0.471-0.278-0.438-0.558
			l1.753-14.398c0.034-0.28,0.278-0.471,0.558-0.437l0.995,0.121c0.249,0.03,0.472,0.278,0.437,0.558L191.145,32.404z"/>
		<path fill="#D6DDE0" d="M206.154,20.301l-1.897,9.558c-0.14,0.707-0.489,1.34-0.974,1.851l-2.24,2.59
			c-0.123,0.135-0.294,0.197-0.479,0.16l-1.722-0.342c-0.185-0.037-0.319-0.159-0.381-0.331l-1.08-3.25
			c-0.253-0.657-0.334-1.375-0.192-2.083l1.897-9.558c0.056-0.276,0.313-0.449,0.589-0.394l0.983,0.195
			c0.276,0.055,0.448,0.313,0.394,0.589l-1.898,9.558c-0.036,0.185-0.036,0.344-0.006,0.51l0.951,2.936l2.03-2.344
			c0.062-0.147,0.123-0.295,0.159-0.479l1.898-9.558c0.055-0.276,0.342-0.443,0.588-0.394l0.983,0.195
			C206.037,19.767,206.209,20.024,206.154,20.301z"/>
		<path fill="#D6DDE0" d="M213.919,23.806l-1.321,4.543l2.617,0.762c0.271,0.079,0.42,0.351,0.342,0.622l-0.281,0.963
			c-0.078,0.271-0.351,0.42-0.621,0.341l-2.618-0.762l-1.332,4.574l2.618,0.762c0.271,0.079,0.42,0.351,0.342,0.622l-0.28,0.963
			c-0.079,0.271-0.351,0.42-0.622,0.341l-3.58-1.042c-0.543-0.158-0.832-0.731-0.684-1.243l3.775-12.969
			c0.158-0.542,0.701-0.84,1.242-0.683l3.582,1.042c0.271,0.079,0.42,0.351,0.34,0.622l-0.279,0.963
			c-0.079,0.271-0.352,0.42-0.622,0.341L213.919,23.806z"/>
		<path fill="#D6DDE0" d="M233.661,33.925l0.437-0.972c0.36-0.8-0.002-1.753-0.802-2.113c-0.8-0.36-1.753,0.002-2.112,0.802
			c-0.168,0.372-0.168,0.372-0.134,0.524l1.608,7.044c0.275,1.223,0.275,1.223-0.137,2.138c-0.809,1.8-2.963,2.619-4.764,1.809
			c-1.8-0.81-2.619-2.964-1.809-4.764l0.437-0.972c0.115-0.257,0.405-0.368,0.663-0.252l0.915,0.411
			c0.257,0.116,0.367,0.406,0.252,0.663l-0.437,0.972c-0.36,0.8,0.002,1.753,0.802,2.113c0.8,0.36,1.753-0.002,2.112-0.802
			c0.168-0.372,0.168-0.372,0.134-0.524l-1.608-7.044c-0.275-1.223-0.275-1.223,0.137-2.138c0.81-1.8,2.963-2.619,4.764-1.809
			c1.8,0.81,2.619,2.963,1.809,4.764l-0.437,0.972c-0.115,0.257-0.405,0.367-0.663,0.252l-0.915-0.411
			C233.654,34.473,233.545,34.183,233.661,33.925z"/>
		<path fill="#D6DDE0" d="M247.457,39.943l-4.068,7.203c-0.986,1.746-3.207,2.363-4.925,1.393c-1.746-0.986-2.362-3.207-1.377-4.953
			l4.067-7.203c0.972-1.719,3.191-2.336,4.938-1.35C247.811,36.004,248.428,38.224,247.457,39.943z M245.71,38.957
			c0.433-0.764,0.159-1.746-0.604-2.178c-0.791-0.447-1.773-0.174-2.205,0.59l-4.068,7.203c-0.447,0.791-0.174,1.773,0.617,2.22
			c0.764,0.431,1.746,0.158,2.193-0.633L245.71,38.957z"/>
		<path fill="#D6DDE0" d="M251.049,54.709l-0.566,0.828c-0.141,0.207-0.463,0.29-0.696,0.131l-3.052-2.087
			c-0.465-0.318-0.562-0.954-0.262-1.394l7.904-11.561c0.159-0.232,0.464-0.29,0.697-0.131l0.828,0.566
			c0.207,0.142,0.289,0.464,0.131,0.697l-7.34,10.733l2.225,1.521C251.15,54.172,251.208,54.477,251.049,54.709z"/>
		<path fill="#D6DDE0" d="M268.398,51.053l-7.129,8.862c-1.256,1.562-3.547,1.811-5.084,0.574c-1.562-1.257-1.812-3.548-0.555-5.11
			l7.129-8.862c0.178-0.22,0.51-0.233,0.705-0.076l0.781,0.628c0.22,0.177,0.253,0.485,0.077,0.705l-7.13,8.862
			c-0.568,0.708-0.459,1.721,0.25,2.291c0.684,0.55,1.697,0.44,2.266-0.268l7.129-8.862c0.178-0.22,0.484-0.253,0.705-0.077
			l0.781,0.628C268.542,50.524,268.576,50.833,268.398,51.053z"/>
		<path fill="#D6DDE0" d="M277.177,59.094l-0.692,0.724c-0.195,0.204-0.506,0.21-0.709,0.016l-1.019-0.975l-8.991,9.391
			c-0.174,0.181-0.506,0.21-0.709,0.016l-0.724-0.693c-0.204-0.195-0.188-0.528-0.017-0.709l8.992-9.391l-1.018-0.975
			c-0.204-0.195-0.21-0.505-0.016-0.709l0.692-0.724c0.195-0.204,0.505-0.21,0.709-0.015l3.485,3.337
			C277.366,58.581,277.372,58.891,277.177,59.094z"/>
		<path fill="#D6DDE0" d="M271.583,74.238c-0.208,0.191-0.519,0.178-0.708-0.029l-0.68-0.738c-0.19-0.208-0.178-0.518,0.029-0.708
			l10.676-9.827c0.207-0.191,0.518-0.178,0.707,0.029l0.68,0.738c0.17,0.185,0.178,0.518-0.029,0.708L271.583,74.238z"/>
		<path fill="#D6DDE0" d="M288.484,76.694L282,81.83c-1.572,1.245-3.861,0.979-5.087-0.568c-1.245-1.572-0.979-3.861,0.593-5.106
			l6.485-5.136c1.548-1.226,3.837-0.959,5.081,0.613C290.298,73.179,290.033,75.468,288.484,76.694z M287.24,75.122
			c0.688-0.545,0.806-1.558,0.261-2.245c-0.563-0.712-1.577-0.83-2.265-0.286l-6.485,5.136c-0.712,0.564-0.83,1.577-0.267,2.289
			c0.545,0.688,1.559,0.806,2.271,0.241L287.24,75.122z"/>
		<path fill="#D6DDE0" d="M296.048,87.738l-9.563,6.215c-0.211,0.137-0.541,0.089-0.694-0.147l-0.546-0.841
			c-0.153-0.236-0.062-0.557,0.146-0.693l9.564-6.215c0.734-0.478,0.947-1.475,0.469-2.211c-0.494-0.762-1.492-0.974-2.229-0.496
			l-9.563,6.215c-0.21,0.137-0.54,0.089-0.692-0.147l-0.547-0.841c-0.153-0.237-0.062-0.557,0.147-0.694l9.563-6.215
			c1.655-1.076,3.91-0.597,5.002,1.084C298.182,84.408,297.704,86.663,296.048,87.738z"/>
		<path fill="#D6DDE0" d="M300.519,97.861l0.943-0.497c0.776-0.409,1.078-1.382,0.669-2.159c-0.409-0.776-1.382-1.078-2.159-0.669
			c-0.359,0.19-0.359,0.19-0.427,0.332l-3.072,6.541c-0.537,1.132-0.537,1.132-1.424,1.6c-1.747,0.92-3.947,0.238-4.867-1.509
			c-0.921-1.747-0.238-3.948,1.508-4.868l0.943-0.497c0.25-0.131,0.545-0.04,0.678,0.21l0.467,0.887
			c0.131,0.25,0.039,0.546-0.211,0.677l-0.942,0.497c-0.776,0.409-1.078,1.382-0.669,2.159c0.409,0.776,1.383,1.078,2.159,0.669
			c0.36-0.189,0.36-0.189,0.427-0.331l3.072-6.541c0.537-1.133,0.537-1.133,1.424-1.6c1.747-0.92,3.948-0.237,4.868,1.509
			s0.237,3.948-1.509,4.868l-0.943,0.497c-0.25,0.131-0.546,0.04-0.677-0.21l-0.468-0.887
			C300.177,98.289,300.269,97.992,300.519,97.861z"/>
	</g>
	<g>
		<path fill="#D6DDE0" d="M300.375,226.958c-0.931-0.449-1.572-1.211-1.852-2.146c-0.906,0.362-1.93,0.321-2.86-0.127l-1.354-0.653
			c-1.806-0.871-2.564-3.046-1.707-4.824l1.144-2.37c0.245-0.508,0.858-0.699,1.338-0.467l12.16,5.865
			c0.508,0.246,0.712,0.832,0.467,1.339l-1.143,2.37c-0.857,1.777-3.032,2.537-4.838,1.666L300.375,226.958z M298.695,222.148
			l0.708-1.467l-4.261-2.056l-0.707,1.467c-0.381,0.79-0.045,1.753,0.744,2.134l1.354,0.652
			C297.352,223.273,298.314,222.938,298.695,222.148z M302.6,225.807c0.818,0.395,1.78,0.059,2.161-0.731l0.708-1.468l-4.26-2.055
			l-0.708,1.467c-0.381,0.791-0.045,1.752,0.745,2.133L302.6,225.807z"/>
		<path fill="#D6DDE0" d="M295.119,239.254l-7.082-4.277c-1.717-1.037-2.27-3.274-1.248-4.965c1.037-1.717,3.273-2.269,4.99-1.232
			l7.083,4.279c1.689,1.021,2.241,3.258,1.205,4.976C299.047,239.723,296.811,240.275,295.119,239.254z M296.156,237.538
			c0.751,0.454,1.741,0.209,2.194-0.542c0.471-0.778,0.227-1.768-0.524-2.223l-7.082-4.277c-0.778-0.471-1.768-0.227-2.237,0.552
			c-0.454,0.751-0.209,1.741,0.568,2.21L296.156,237.538z"/>
		<path fill="#D6DDE0" d="M287.415,250.214l-6.651-4.918c-1.611-1.192-1.953-3.472-0.779-5.06c1.191-1.611,3.471-1.953,5.082-0.76
			l6.651,4.918c1.587,1.174,1.929,3.453,0.736,5.064C291.279,251.046,289.001,251.389,287.415,250.214z M288.607,248.602
			c0.705,0.521,1.713,0.371,2.234-0.334c0.541-0.73,0.391-1.738-0.316-2.261l-6.65-4.919c-0.73-0.54-1.738-0.389-2.279,0.342
			c-0.521,0.705-0.371,1.713,0.36,2.254L288.607,248.602z"/>
		<path fill="#D6DDE0" d="M277.557,259.395c-0.77-0.689-1.175-1.599-1.184-2.574c-0.971,0.098-1.941-0.227-2.712-0.916l-1.12-1.004
			c-1.493-1.338-1.619-3.637-0.302-5.107l1.756-1.959c0.376-0.42,1.019-0.434,1.416-0.078l10.056,9.01
			c0.42,0.377,0.454,0.996,0.078,1.416l-1.756,1.959c-1.316,1.471-3.617,1.596-5.109,0.258L277.557,259.395z M277.277,254.309
			l1.088-1.213l-3.523-3.158l-1.087,1.213c-0.585,0.654-0.53,1.672,0.124,2.257l1.12,1.003
			C275.676,255.018,276.693,254.961,277.277,254.309z M280.016,258.904c0.676,0.606,1.693,0.551,2.278-0.103l1.087-1.213
			l-3.523-3.157l-1.086,1.213c-0.586,0.653-0.53,1.67,0.123,2.256L280.016,258.904z"/>
		<path fill="#D6DDE0" d="M269.105,269.746l-5.619-6.071c-1.362-1.472-1.273-3.774,0.175-5.114c1.472-1.362,3.774-1.273,5.137,0.197
			l5.62,6.071c1.341,1.448,1.252,3.751-0.221,5.114C272.75,271.284,270.447,271.195,269.105,269.746z M270.578,268.384
			c0.596,0.644,1.615,0.683,2.258,0.087c0.667-0.617,0.707-1.636,0.109-2.279l-5.619-6.071c-0.617-0.667-1.637-0.706-2.303-0.089
			c-0.645,0.596-0.684,1.615-0.066,2.281L270.578,268.384z"/>
		<path fill="#D6DDE0" d="M258.659,278.152l-5.027-6.565c-1.219-1.592-0.916-3.875,0.651-5.075c1.592-1.219,3.875-0.916,5.094,0.676
			l5.027,6.566c1.199,1.566,0.896,3.852-0.695,5.069C262.143,280.023,259.859,279.721,258.659,278.152z M260.251,276.934
			c0.533,0.696,1.543,0.832,2.24,0.297c0.721-0.551,0.854-1.562,0.321-2.258l-5.026-6.566c-0.552-0.721-1.562-0.855-2.284-0.303
			c-0.695,0.532-0.831,1.543-0.277,2.265L260.251,276.934z"/>
		<path fill="#D6DDE0" d="M239.648,276.874c-0.142-0.244-0.062-0.543,0.184-0.685l0.868-0.502c0.243-0.142,0.543-0.062,0.685,0.183
			l7.262,12.554c0.143,0.244,0.062,0.543-0.183,0.686l-0.868,0.502c-0.217,0.125-0.543,0.061-0.685-0.184L239.648,276.874z"/>
		<path fill="#D6DDE0" d="M233.583,292.824l-4.96-10.27c-0.109-0.227-0.021-0.548,0.232-0.67l0.903-0.436
			c0.255-0.123,0.562,0.008,0.669,0.232l4.961,10.271c0.381,0.79,1.344,1.125,2.133,0.743c0.818-0.395,1.154-1.356,0.772-2.146
			l-4.96-10.27c-0.109-0.227-0.021-0.547,0.232-0.67l0.904-0.436c0.254-0.123,0.561,0.008,0.668,0.233l4.961,10.27
			c0.857,1.777,0.1,3.953-1.707,4.825C236.617,295.359,234.441,294.602,233.583,292.824z"/>
		<path fill="#D6DDE0" d="M224.844,299.744l-0.361-0.936c-0.103-0.263,0.022-0.547,0.285-0.647l1.314-0.511l-4.699-12.119
			c-0.09-0.233,0.023-0.547,0.286-0.648l0.935-0.361c0.264-0.103,0.559,0.053,0.648,0.285l4.699,12.12l1.314-0.509
			c0.262-0.102,0.547,0.023,0.647,0.286l0.362,0.935c0.102,0.264-0.023,0.547-0.287,0.648l-4.497,1.744
			C225.229,300.131,224.945,300.006,224.844,299.744z"/>
		<path fill="#D6DDE0" d="M216.829,300.84l-1.354-4.531l-2.611,0.78c-0.271,0.081-0.543-0.067-0.624-0.337l-0.287-0.96
			c-0.081-0.271,0.065-0.543,0.337-0.624l2.611-0.781l-1.364-4.562l-2.611,0.78c-0.271,0.08-0.543-0.066-0.624-0.336l-0.287-0.961
			c-0.08-0.27,0.066-0.543,0.338-0.623l3.57-1.067c0.541-0.162,1.096,0.163,1.248,0.673l3.867,12.936
			c0.162,0.541-0.133,1.086-0.673,1.248l-3.572,1.068c-0.271,0.081-0.543-0.066-0.624-0.337l-0.287-0.96
			c-0.081-0.27,0.066-0.543,0.336-0.624L216.829,300.84z"/>
		<path fill="#D6DDE0" d="M200.166,301.755c-0.209-1.013-0.001-2.016,0.541-2.8c-0.809-0.504-1.391-1.312-1.602-2.325l-0.945-4.571
			c-0.051-0.246,0.113-0.537,0.389-0.594l0.982-0.203c0.275-0.057,0.542,0.145,0.593,0.391l0.946,4.572
			c0.178,0.858,1.029,1.418,1.889,1.24l1.564-0.324l-1.27-6.137c-0.051-0.246,0.145-0.542,0.389-0.593l0.982-0.203
			c0.275-0.058,0.542,0.144,0.593,0.39l2.837,13.717c0.114,0.552-0.227,1.07-0.779,1.185l-2.547,0.526
			c-1.963,0.406-3.858-0.865-4.258-2.799L200.166,301.755z M202.434,302.822c0.178,0.859,1.029,1.419,1.89,1.24l1.565-0.324
			l-0.959-4.633l-1.564,0.324c-0.859,0.178-1.42,1.029-1.235,1.918L202.434,302.822z"/>
		<path fill="#D6DDE0" d="M187.195,305.002l-1.256-11.305c-0.031-0.28,0.162-0.522,0.442-0.555l0.997-0.11
			c0.28-0.031,0.523,0.163,0.555,0.442l0.688,6.197l3.208-0.355l-0.689-6.198c-0.031-0.28,0.164-0.522,0.443-0.554l0.997-0.111
			c0.28-0.031,0.522,0.163,0.554,0.443l1.258,11.305c0.217,1.962-1.222,3.762-3.215,3.982
			C189.214,308.402,187.415,306.964,187.195,305.002z M189.189,304.779c0.097,0.873,0.893,1.51,1.765,1.412
			c0.903-0.101,1.54-0.896,1.442-1.769l-0.347-3.114l-3.208,0.356L189.189,304.779z"/>
		<path fill="#D6DDE0" d="M175.825,304.492l0.021,1.064c0.018,0.877,0.75,1.584,1.629,1.567c0.877-0.017,1.584-0.751,1.566-1.628
			l-0.158-8.303c-0.017-0.877-0.751-1.584-1.628-1.566s-1.584,0.75-1.567,1.628l0.022,1.159c0.005,0.281-0.21,0.505-0.492,0.511
			l-1.002,0.019c-0.282,0.006-0.505-0.209-0.511-0.491l-0.022-1.159c-0.038-1.975,1.561-3.634,3.534-3.671
			c2.006-0.038,3.633,1.56,3.672,3.534l0.157,8.302c0.037,1.974-1.528,3.633-3.534,3.671c-1.974,0.038-3.634-1.561-3.671-3.533
			l-0.021-1.066c-0.005-0.281,0.21-0.504,0.492-0.51l1.002-0.02C175.596,303.995,175.818,304.209,175.825,304.492z"/>
		<path fill="#D6DDE0" d="M163.356,308.262l0.058-1.001c0.016-0.282,0.248-0.487,0.529-0.472l1.408,0.082l0.754-12.98
			c0.014-0.25,0.248-0.488,0.529-0.473l1.001,0.059c0.282,0.016,0.486,0.278,0.472,0.529l-0.754,12.98l1.408,0.082
			c0.282,0.017,0.488,0.248,0.472,0.529l-0.058,1.002c-0.017,0.281-0.248,0.487-0.53,0.471l-4.817-0.279
			C163.546,308.775,163.34,308.543,163.356,308.262z"/>
		<path fill="#D6DDE0" d="M157.8,293.104c0.034-0.28,0.278-0.472,0.558-0.438l0.995,0.122c0.28,0.034,0.471,0.278,0.437,0.558
			l-1.759,14.398c-0.034,0.279-0.278,0.471-0.559,0.438l-0.995-0.123c-0.249-0.029-0.471-0.277-0.437-0.558L157.8,293.104z"/>
		<path fill="#D6DDE0" d="M142.792,305.207l1.898-9.559c0.14-0.707,0.49-1.34,0.974-1.851l2.24-2.59
			c0.123-0.136,0.294-0.197,0.479-0.16l1.721,0.343c0.185,0.036,0.32,0.158,0.381,0.33l1.08,3.25
			c0.253,0.657,0.334,1.375,0.193,2.084l-1.898,9.557c-0.055,0.277-0.313,0.449-0.589,0.395l-0.983-0.195
			c-0.277-0.055-0.449-0.312-0.394-0.588l1.898-9.559c0.037-0.186,0.037-0.344,0.006-0.51l-0.95-2.937l-2.031,2.345
			c-0.062,0.146-0.123,0.295-0.159,0.479l-1.898,9.559c-0.055,0.275-0.343,0.442-0.589,0.394l-0.983-0.195
			C142.909,305.741,142.737,305.482,142.792,305.207z"/>
		<path fill="#D6DDE0" d="M135.027,301.702l1.322-4.543l-2.618-0.763c-0.271-0.078-0.42-0.351-0.341-0.621l0.28-0.963
			c0.079-0.271,0.351-0.42,0.622-0.342l2.618,0.762l1.332-4.573l-2.618-0.763c-0.271-0.078-0.42-0.351-0.341-0.621l0.28-0.963
			c0.079-0.271,0.351-0.42,0.621-0.342l3.581,1.042c0.542,0.158,0.832,0.731,0.683,1.243l-3.775,12.969
			c-0.158,0.543-0.702,0.84-1.243,0.684l-3.581-1.042c-0.271-0.079-0.42-0.351-0.341-0.622l0.28-0.963
			c0.079-0.271,0.351-0.42,0.622-0.342L135.027,301.702z"/>
		<path fill="#D6DDE0" d="M115.285,291.583l-0.437,0.972c-0.36,0.801,0.002,1.754,0.802,2.113c0.8,0.359,1.753-0.002,2.113-0.802
			c0.167-0.372,0.167-0.372,0.133-0.524l-1.608-7.044c-0.275-1.223-0.275-1.223,0.136-2.138c0.809-1.801,2.963-2.619,4.764-1.809
			c1.8,0.81,2.619,2.963,1.809,4.764l-0.437,0.972c-0.115,0.257-0.405,0.368-0.663,0.252l-0.915-0.411
			c-0.257-0.115-0.367-0.406-0.252-0.662l0.437-0.973c0.36-0.8-0.002-1.753-0.802-2.113c-0.8-0.359-1.753,0.002-2.113,0.803
			c-0.167,0.371-0.167,0.371-0.133,0.523l1.608,7.044c0.275,1.224,0.275,1.224-0.136,2.138c-0.81,1.801-2.963,2.619-4.764,1.81
			c-1.8-0.81-2.619-2.963-1.809-4.765l0.437-0.971c0.115-0.258,0.405-0.367,0.663-0.253l0.915,0.411
			C115.291,291.035,115.4,291.325,115.285,291.583z"/>
		<path fill="#D6DDE0" d="M101.489,285.564l4.068-7.203c0.986-1.745,3.207-2.362,4.925-1.393c1.746,0.986,2.363,3.207,1.377,4.953
			l-4.068,7.203c-0.971,1.719-3.191,2.336-4.937,1.35C101.136,289.504,100.518,287.284,101.489,285.564z M103.235,286.551
			c-0.432,0.764-0.159,1.746,0.605,2.178c0.791,0.447,1.773,0.174,2.205-0.59l4.068-7.203c0.447-0.791,0.174-1.772-0.617-2.22
			c-0.764-0.431-1.746-0.157-2.193,0.634L103.235,286.551z"/>
		<path fill="#D6DDE0" d="M97.897,270.799l0.566-0.828c0.141-0.207,0.464-0.289,0.697-0.131l3.052,2.087
			c0.465,0.318,0.562,0.954,0.262,1.394l-7.905,11.562c-0.159,0.232-0.464,0.29-0.697,0.132l-0.828-0.566
			c-0.207-0.143-0.29-0.465-0.131-0.697l7.339-10.732l-2.224-1.521C97.795,271.336,97.738,271.032,97.897,270.799z"/>
		<path fill="#D6DDE0" d="M80.546,274.456l7.129-8.862c1.257-1.562,3.547-1.811,5.085-0.574c1.562,1.258,1.811,3.549,0.554,5.11
			l-7.129,8.862c-0.177,0.22-0.509,0.232-0.705,0.076l-0.78-0.629c-0.22-0.176-0.253-0.484-0.077-0.705l7.129-8.861
			c0.569-0.708,0.459-1.721-0.249-2.291c-0.684-0.55-1.697-0.439-2.266,0.268l-7.129,8.862c-0.177,0.22-0.485,0.253-0.705,0.077
			l-0.781-0.628C80.403,274.984,80.37,274.675,80.546,274.456z"/>
		<path fill="#D6DDE0" d="M71.768,266.414l0.693-0.725c0.195-0.203,0.505-0.209,0.708-0.016l1.019,0.975l8.992-9.391
			c0.173-0.181,0.505-0.21,0.708-0.015l0.724,0.692c0.204,0.195,0.188,0.528,0.016,0.709l-8.992,9.391l1.018,0.975
			c0.204,0.195,0.21,0.506,0.016,0.709l-0.693,0.725c-0.195,0.203-0.505,0.209-0.709,0.015l-3.485-3.337
			C71.58,266.928,71.573,266.618,71.768,266.414z"/>
		<path fill="#D6DDE0" d="M77.362,251.271c0.208-0.191,0.518-0.179,0.708,0.028l0.679,0.738c0.191,0.208,0.178,0.519-0.029,0.708
			l-10.675,9.827c-0.208,0.19-0.518,0.178-0.708-0.029l-0.679-0.737c-0.17-0.186-0.178-0.519,0.029-0.709L77.362,251.271z"/>
		<path fill="#D6DDE0" d="M60.461,248.814l6.485-5.137c1.572-1.244,3.861-0.979,5.087,0.568c1.245,1.572,0.979,3.861-0.593,5.105
			l-6.485,5.137c-1.548,1.226-3.837,0.959-5.082-0.613C58.647,252.33,58.913,250.041,60.461,248.814z M61.706,250.387
			c-0.688,0.545-0.806,1.559-0.261,2.245c0.564,0.712,1.577,0.83,2.265,0.286l6.485-5.136c0.712-0.564,0.83-1.577,0.266-2.289
			c-0.545-0.688-1.558-0.806-2.27-0.241L61.706,250.387z"/>
		<path fill="#D6DDE0" d="M52.897,237.77l9.564-6.215c0.21-0.137,0.54-0.089,0.694,0.147l0.546,0.841
			c0.153,0.236,0.063,0.557-0.147,0.693l-9.564,6.215c-0.735,0.479-0.947,1.475-0.469,2.211c0.495,0.762,1.492,0.975,2.228,0.496
			l9.564-6.215c0.21-0.137,0.54-0.09,0.693,0.146l0.546,0.842c0.154,0.236,0.063,0.557-0.147,0.693l-9.564,6.215
			c-1.655,1.076-3.91,0.598-5.002-1.084C50.763,241.1,51.242,238.846,52.897,237.77z"/>
		<path fill="#D6DDE0" d="M48.427,227.648l-0.943,0.496c-0.776,0.41-1.078,1.383-0.669,2.16c0.409,0.775,1.382,1.077,2.159,0.668
			c0.36-0.189,0.36-0.189,0.427-0.332l3.072-6.541c0.537-1.132,0.537-1.132,1.424-1.6c1.747-0.92,3.947-0.238,4.868,1.509
			c0.92,1.747,0.237,3.948-1.509,4.868l-0.943,0.497c-0.25,0.131-0.545,0.04-0.677-0.21l-0.467-0.887
			c-0.131-0.25-0.04-0.547,0.21-0.678l0.943-0.496c0.776-0.41,1.078-1.383,0.669-2.16c-0.409-0.775-1.383-1.077-2.159-0.668
			c-0.361,0.188-0.361,0.188-0.428,0.33l-3.072,6.541c-0.537,1.133-0.537,1.133-1.424,1.601c-1.747,0.92-3.948,0.237-4.868-1.509
			s-0.238-3.948,1.509-4.868l0.943-0.497c0.25-0.131,0.546-0.04,0.677,0.21l0.467,0.888
			C48.769,227.221,48.677,227.518,48.427,227.648z"/>
	</g>
</g>
<g id="inner_circle">
	
		<linearGradient id="SVGID_1_" gradientUnits="userSpaceOnUse" x1="439.9736" y1="-77.7129" x2="439.9736" y2="-323.7218" gradientTransform="matrix(1 0 0 -1 -265.5 -38)">
		<stop  offset="0" style="stop-color:#AEBDCD"/>
		<stop  offset="1" style="stop-color:#74879C"/>
	</linearGradient>
	<path fill="url(#SVGID_1_)" d="M297.479,162.717c0-67.934-55.071-123.004-123.004-123.004S51.47,94.783,51.47,162.717
		c0,2.522,0.084,5.025,0.235,7.508c6.151-10.685,13.386-21.959,18.188-27.96c6.092-7.616,16.753-14.578,20.669-18.93
		s14.143-16.536,16.318-20.888c2.175-4.351,6.745-29.808,9.356-31.983c2.61-2.176,7.868-3.699,12.094-3.917
		c4.224-0.217,9.881-1.957,10.099,2.611c0.218,4.569-7.397,10.227-8.268,13.272c-0.871,3.046-1.821,5.852-0.712,5.897
		c0.35,0.014,1.609,0.551,2.09-0.458c2.32-4.859,8.417-14.069,12.982-17.406c5.657-4.134,12.185-3.046,17.188-1.523
		c5.004,1.523,9.138,2.611,8.269,4.787c-0.871,2.176-16.754,5.657-17.188,9.573c-0.076,0.675-0.644,2.773,0.508,2.684
		c8.34-0.652,22.249,0.277,24.948,1.016c6.627,1.81,26.762,10.661,33.072,13.055c6.31,2.393,12.393,2.175,15.334,4.134
		c1.192,0.794,1.357,2.593,1.162,4.649c11.055,0.233,35.723,0.443,38.332,2.53c2.902,2.321,2.901,24.658,0,31.912
		c-2.899,7.252-23.207,31.91-29.299,36.843c-6.093,4.932-15.957,12.766-24.949,13.055c-0.362,2.828-4.498,9.139-4.713,14.143
		c-0.219,5.005-0.01,25.925,19.465,66.81C268.496,254.497,297.479,211.994,297.479,162.717z"/>
	
		<linearGradient id="SVGID_2_" gradientUnits="userSpaceOnUse" x1="405.4385" y1="-100.8594" x2="405.4385" y2="-331.4515" gradientTransform="matrix(1 0 0 -1 -265.5 -38)">
		<stop  offset="0" style="stop-color:#8192A3"/>
		<stop  offset="1" style="stop-color:#4E5F75"/>
	</linearGradient>
	<path fill="url(#SVGID_2_)" d="M207.329,207.355c0.217-5.004,4.353-11.313,4.713-14.143c-8.993,0.289-19.437-9.574-22.917-21.469
		c-3.482-11.894-5.512-30.46-2.611-38.583c1.359-3.805,7.543-10.443,11.314-13.055c3.771-2.611,18.564-9.863,26.979-11.314
		c0.846,0.029,1.918,0.056,3.152,0.082c0.195-2.058,0.031-3.856-1.162-4.65c-2.941-1.958-9.025-1.74-15.335-4.134
		s-26.444-11.245-33.071-13.055c-2.699-0.737-16.607-1.668-24.949-1.016c-1.151,0.09-0.583-2.009-0.508-2.684
		c0.435-3.917,6.32-11.786,7.19-13.962c0.871-2.175-0.587-4.534-5.592-6.058c-5.004-1.522-8.938,0.923-14.594,5.058
		c-4.566,3.336-5.934,14.672-8.254,19.531c-0.482,1.009-1.741,0.472-2.091,0.458c-1.108-0.045-0.158-2.852,0.712-5.897
		c0.871-3.047,3.65-11.84,3.432-16.409c-0.217-4.568-8.639-2.096-12.863-1.877c-4.225,0.218-8.897,4.736-11.509,6.912
		c-2.612,2.176-0.165,27.039-2.34,31.392c-2.175,4.351-12.402,16.535-16.318,20.887S76.13,134.685,70.038,142.3
		c-4.802,6.003-12.036,17.276-18.188,27.962c3.882,64.436,57.358,115.495,122.769,115.495c18.654,0,36.335-4.159,52.176-11.592
		C207.32,233.279,207.111,212.359,207.329,207.355z"/>
	
		<linearGradient id="SVGID_3_" gradientUnits="userSpaceOnUse" x1="492.2305" y1="-146.793" x2="492.2305" y2="-231.2207" gradientTransform="matrix(1 0 0 -1 -265.5 -38)">
		<stop  offset="0" style="stop-color:#BCC8D1"/>
		<stop  offset="1" style="stop-color:#ADBAC9"/>
	</linearGradient>
	<path fill="url(#SVGID_3_)" d="M245.984,125.329c-0.578-5.803,4.299-5.926,11.604-8.993c5.372-2.254,6.813-4.084,8.892-4.734
		c-0.062-0.07-0.123-0.146-0.188-0.197c-1.002-0.801-5.25-1.325-10.731-1.681c-8.804-0.57-20.787-0.706-27.601-0.849
		c-1.233-0.026-2.308-0.053-3.151-0.082c-8.414,1.451-23.209,8.703-26.979,11.314s-9.956,9.25-11.313,13.055
		c-2.9,8.123-0.871,26.689,2.61,38.583c3.481,11.896,13.925,21.758,22.917,21.469c8.993-0.29,18.857-8.122,24.949-13.055
		c6.092-4.932,26.4-29.591,29.3-36.844c1.089-2.725,1.771-7.58,2.042-12.703c-2.852,0.951-7.044,2.841-12.363,2.841
		C250.29,133.453,246.564,131.132,245.984,125.329z"/>
	
		<linearGradient id="SVGID_4_" gradientUnits="userSpaceOnUse" x1="522.7012" y1="-149.498" x2="522.7012" y2="-171.4532" gradientTransform="matrix(1 0 0 -1 -265.5 -38)">
		<stop  offset="0" style="stop-color:#8493A1"/>
		<stop  offset="1" style="stop-color:#788B9E"/>
	</linearGradient>
	<path fill="url(#SVGID_4_)" d="M266.48,111.602c-2.078,0.65-3.52,2.48-8.892,4.734c-7.306,3.067-12.183,3.19-11.604,8.993
		c0.58,5.803,4.305,8.124,9.986,8.124c5.318,0,9.51-1.89,12.362-2.841C268.768,122.408,268.148,113.527,266.48,111.602z"/>
</g>
</svg>
