<?xml version="1.0" encoding="utf-8"?>
<!-- Generator: Adobe Illustrator 15.0.2, SVG Export Plug-In  -->
<!DOCTYPE svg PUBLIC "-//W3C//DTD SVG 1.1//EN" "http://www.w3.org/Graphics/SVG/1.1/DTD/svg11.dtd" [
	<!ENTITY ns_flows "http://ns.adobe.com/Flows/1.0/">
]>
<svg version="1.1"
	 xmlns="http://www.w3.org/2000/svg" xmlns:xlink="http://www.w3.org/1999/xlink" xmlns:a="http://ns.adobe.com/AdobeSVGViewerExtensions/3.0/"
	 x="0px" y="0px" width="960px" height="960px" viewBox="-69.145 -100.404 960 960"
	 overflow="visible" enable-background="new -69.145 -100.404 960 960" xml:space="preserve">
<defs>
</defs>
<linearGradient id="outer_circle_3_" gradientUnits="userSpaceOnUse" x1="433.1108" y1="4.882812e-04" x2="433.1108" y2="858.5972">
	<stop  offset="0" style="stop-color:#8F9AA8"/>
	<stop  offset="1" style="stop-color:#3D4857"/>
</linearGradient>
<path id="outer_circle_2_" fill="url(#outer_circle_3_)" fill-opacity="0.15" d="M865.183,374.735
	c7.334,38.202-26.627,57.261-26.627,92.764c0,35.502,17.751,60.697,7.444,89.614c-10.308,28.917-41.515,40.083-59.552,71.862
	c-18.038,31.78-6.777,56.976-29.873,82.743c-23.094,25.768-50.293,16.704-80.928,40.848c-30.636,24.145-35.789,47.049-57.549,61.65
	c-21.759,14.602-65.851,2.577-97.058,7.444c-31.208,4.867-54.689,36.647-88.185,36.934c-33.496,0.286-51.534-31.494-84.459-36.361
	s-61.27,7.444-91.332-2.577c-30.062-10.021-39.224-45.809-62.128-63.273c-22.905-17.465-63.091-23.478-85.801-43.805
	c-22.71-20.328-9.54-49.245-28.15-80.739C62.377,600.346,29.166,587.462,18,553.677c-11.166-33.784,9.734-47.812,8.303-78.734
	c-1.432-30.921-29.203-67.282-26.054-97.917c3.149-30.635,26.913-35.502,39.796-68.714c12.884-33.211,0.573-75.012,14.029-99.349
	c13.457-24.336,56.689-34.643,76.158-59.266c19.469-24.622,16.033-48.386,41.801-70.718s68.428-11.738,95.054-25.768
	S308.342,8.834,340.538,1.39s50.918,17.465,92.376,16.892c41.459-0.572,46.04-23.108,89.272-16.564
	c43.232,6.544,44.664,39.469,81.024,54.93c36.361,15.461,55.258-4.294,85.033,15.174c29.776,19.469,26.341,56.689,49.245,79.593
	c22.904,22.905,52.395,25.195,71.291,52.681c18.896,27.486,2.576,57.262,12.884,91.619
	C831.971,330.071,857.902,336.808,865.183,374.735z"/>
</svg>
