<?xml version="1.0" encoding="utf-8"?>
<!-- Generator: Adobe Illustrator 15.0.0, SVG Export Plug-In  -->
<!DOCTYPE svg PUBLIC "-//W3C//DTD SVG 1.1//EN" "http://www.w3.org/Graphics/SVG/1.1/DTD/svg11.dtd" [
	<!ENTITY ns_flows "http://ns.adobe.com/Flows/1.0/">
]>
<svg version="1.1"
	 xmlns="http://www.w3.org/2000/svg" xmlns:xlink="http://www.w3.org/1999/xlink" xmlns:a="http://ns.adobe.com/AdobeSVGViewerExtensions/3.0/"
	 x="0px" y="0px" width="1814px" height="2052px" viewBox="-110.551 0.013 1814 2052"
	 overflow="visible" enable-background="new -110.551 0.013 1814 2052" xml:space="preserve">
<defs>
</defs>
<path fill="#FFFFFF" d="M802.205,87.874L0,2032.454h447.874l354.331-881.587l345.827,881.587h456.378l-372.861-914.787
	c0,0,20.732-25.209,18.667-72.001c21.641-31.541,112.922-44.873,75.334-118c-36.668-71.333-96-24.666-98.667-22
	c-12.667-10-18.001-62.666-52-88c-34-25.333-36.667-22-36.667-22s0.667-11.999-9.333-16.666c2-53.334,48.589-779,48.589-779
	l-133.229,649.134L802.205,87.874z"/>
<polygon fill="#FFFFFF" points="459.212,2032.454 680.286,2032.454 800.771,1735.525 915.786,2032.454 1136.693,2032.454 
	802.205,1188.525 "/>
</svg>
