<?xml version="1.0" encoding="utf-8"?>
<!-- Generator: Adobe Illustrator 15.0.2, SVG Export Plug-In  -->
<!DOCTYPE svg PUBLIC "-//W3C//DTD SVG 1.1//EN" "http://www.w3.org/Graphics/SVG/1.1/DTD/svg11.dtd" [
	<!ENTITY ns_flows "http://ns.adobe.com/Flows/1.0/">
]>
<svg version="1.1"
	 xmlns="http://www.w3.org/2000/svg" xmlns:xlink="http://www.w3.org/1999/xlink" xmlns:a="http://ns.adobe.com/AdobeSVGViewerExtensions/3.0/"
	 x="0px" y="0px" width="960px" height="960px" viewBox="-66.854 -43.143 960 960"
	 overflow="visible" enable-background="new -66.854 -43.143 960 960" xml:space="preserve">
<defs>
</defs>
<linearGradient id="outer_circle_3_" gradientUnits="userSpaceOnUse" x1="433.1104" y1="0" x2="433.1103" y2="858.5967">
	<stop  offset="0" style="stop-color:#8F9AA8"/>
	<stop  offset="1" style="stop-color:#3D4857"/>
</linearGradient>
<path id="outer_circle_1_" fill="url(#outer_circle_3_)" d="M865.183,374.735c7.335,38.202-26.626,57.262-26.626,92.764
	s17.751,60.697,7.443,89.614c-10.307,28.917-41.515,40.083-59.552,71.863s-6.777,56.975-29.872,82.742s-50.294,16.705-80.929,40.849
	s-35.788,47.048-57.548,61.649c-21.759,14.602-65.851,2.577-97.058,7.444c-31.208,4.867-54.689,36.647-88.186,36.934
	c-33.496,0.286-51.533-31.494-84.458-36.361c-32.926-4.867-61.27,7.444-91.333-2.576c-30.062-10.021-39.224-45.81-62.128-63.274
	c-22.905-17.465-63.091-23.477-85.801-43.805s-9.54-49.245-28.15-80.738C62.377,600.345,29.166,587.461,18,553.677
	s9.734-47.813,8.303-78.734c-1.432-30.922-29.203-67.283-26.054-97.917c3.149-30.635,26.913-35.502,39.796-68.714
	s0.573-75.013,14.029-99.349c13.457-24.336,56.689-34.643,76.158-59.266s16.033-48.386,41.801-70.718
	c25.768-22.332,68.428-11.738,95.054-25.768c26.626-14.029,41.255-44.377,73.451-51.821c32.196-7.444,50.918,17.465,92.377,16.892
	c41.458-0.573,46.039-23.108,89.271-16.564c43.232,6.543,44.664,39.469,81.025,54.93c36.361,15.46,55.257-4.295,85.033,15.174
	c29.775,19.469,26.34,56.688,49.245,79.593c22.904,22.905,52.394,25.195,71.29,52.681c18.896,27.485,2.577,57.261,12.884,91.618
	C831.972,330.071,857.902,336.808,865.183,374.735z"/>
<path id="right_large_circle_fraction_1_" fill="none" stroke="#889FB0" stroke-miterlimit="10" d="M778.226,278.694
	c19.241,45.145,29.889,94.831,29.889,147.003c0,48.14-9.066,94.163-25.582,136.454"/>
<path id="right_medium_circle_fraction_1_" fill="none" stroke="#889FB0" stroke-miterlimit="10" d="M768.742,283.312
	c18.574,43.744,28.85,91.865,28.85,142.386c0,46.764-8.804,91.471-24.846,132.556"/>
<path id="right_small_circle_fraction_1_" fill="none" stroke="#889FB0" stroke-miterlimit="10" d="M759.299,288.074
	c17.858,42.31,27.731,88.813,27.731,137.624c0,45.254-8.488,88.527-23.961,128.312"/>
<path id="left_large_circle_fraction_1_" fill="none" stroke="#889FB0" stroke-miterlimit="10" d="M88.147,574.244
	C68.49,528.69,57.599,478.465,57.599,425.698c0-45.841,8.22-89.76,23.265-130.366"/>
<path id="left_medium_circle_fraction_1_" fill="none" stroke="#889FB0" stroke-miterlimit="10" d="M96.951,568.084
	c-18.577-43.745-28.854-91.867-28.854-142.387c0-44.033,7.806-86.244,22.11-125.322"/>
<path id="left_small_circle_fraction_1_" fill="none" stroke="#889FB0" stroke-miterlimit="10" d="M105.664,561.519
	c-17.383-41.828-26.979-87.704-26.98-135.821c0-42.504,7.488-83.261,21.215-121.021"/>
<path fill="#D6DDE0" d="M101.65,256.443c2.45,1.185,4.136,3.19,4.869,5.651c2.384-0.954,5.078-0.842,7.528,0.342l3.563,1.723
	c4.751,2.297,6.745,8.023,4.484,12.7l-3.015,6.236c-0.646,1.336-2.262,1.837-3.524,1.227l-31.995-15.468
	c-1.336-0.646-1.873-2.188-1.227-3.524l3.015-6.236c2.261-4.677,7.987-6.671,12.738-4.374L101.65,256.443z M95.79,259.471
	c-2.153-1.041-4.686-0.159-5.69,1.92l-1.866,3.86l11.209,5.419l1.866-3.86c1.005-2.078,0.123-4.611-1.956-5.616L95.79,259.471z
	 M106.06,269.107l-1.866,3.86l11.209,5.419l1.866-3.86c1.005-2.079,0.123-4.611-1.956-5.616l-3.563-1.723
	C109.598,266.146,107.065,267.029,106.06,269.107z"/>
<path fill="#D6DDE0" d="M115.515,224.109l18.623,11.271c4.515,2.732,5.963,8.621,3.273,13.065c-2.732,4.515-8.621,5.963-13.135,3.23
	l-18.623-11.271c-4.444-2.689-5.893-8.578-3.16-13.093C105.182,222.867,111.07,221.419,115.515,224.109z M112.782,228.624
	c-1.976-1.195-4.58-0.555-5.775,1.42c-1.238,2.046-0.598,4.65,1.378,5.846l18.623,11.271c2.046,1.238,4.65,0.598,5.888-1.448
	c1.196-1.975,0.555-4.58-1.491-5.818L112.782,228.624z"/>
<path fill="#D6DDE0" d="M135.824,195.273l17.487,12.963c4.239,3.143,5.13,9.14,2.037,13.313c-3.143,4.239-9.141,5.13-13.38,1.988
	l-17.487-12.963c-4.173-3.093-5.064-9.091-1.921-13.331C125.653,193.071,131.651,192.18,135.824,195.273z M132.682,199.513
	c-1.854-1.375-4.508-0.981-5.882,0.874c-1.424,1.921-1.03,4.574,0.825,5.949l17.487,12.963c1.921,1.424,4.574,1.03,5.998-0.891
	c1.375-1.855,0.98-4.508-0.94-5.932L132.682,199.513z"/>
<path fill="#D6DDE0" d="M161.727,171.18c2.025,1.817,3.089,4.212,3.111,6.78c2.556-0.255,5.113,0.599,7.138,2.417l2.946,2.644
	c3.928,3.524,4.255,9.579,0.786,13.445l-4.625,5.155c-0.991,1.104-2.683,1.138-3.726,0.202l-26.451-23.735
	c-1.104-0.991-1.193-2.621-0.202-3.726l4.626-5.155c3.469-3.867,9.524-4.194,13.452-0.67L161.727,171.18z M155.257,172.464
	c-1.78-1.597-4.458-1.452-6,0.267l-2.864,3.191l9.267,8.315l2.864-3.191c1.542-1.719,1.397-4.396-0.321-5.938L155.257,172.464z
	 M162.452,184.57l-2.864,3.191l9.267,8.315l2.864-3.191c1.542-1.719,1.397-4.397-0.322-5.938l-2.946-2.644
	C166.671,182.707,163.994,182.852,162.452,184.57z"/>
<path fill="#D6DDE0" d="M184.005,143.937l14.78,15.984c3.583,3.875,3.346,9.935-0.469,13.462c-3.875,3.583-9.935,3.346-13.518-0.529
	l-14.78-15.984c-3.527-3.814-3.29-9.874,0.585-13.457C174.418,139.885,180.478,140.122,184.005,143.937z M180.13,147.52
	c-1.568-1.695-4.248-1.8-5.943-0.232c-1.756,1.624-1.861,4.304-0.293,5.999l14.78,15.984c1.624,1.756,4.304,1.861,6.06,0.237
	c1.695-1.568,1.8-4.248,0.177-6.004L180.13,147.52z"/>
<path fill="#D6DDE0" d="M211.461,121.867l13.225,17.29c3.206,4.191,2.405,10.202-1.721,13.358
	c-4.191,3.206-10.202,2.405-13.408-1.786l-13.225-17.29c-3.156-4.126-2.355-10.136,1.836-13.342
	C202.295,116.941,208.305,117.741,211.461,121.867z M207.27,125.073c-1.403-1.833-4.061-2.188-5.895-0.785
	c-1.899,1.453-2.253,4.111-0.851,5.945l13.225,17.29c1.453,1.899,4.111,2.253,6.01,0.801c1.834-1.403,2.188-4.061,0.735-5.96
	L207.27,125.073z"/>
<path fill="#D6DDE0" d="M261.441,125.296c0.372,0.642,0.161,1.431-0.482,1.802l-2.284,1.32c-0.642,0.372-1.431,0.161-1.802-0.481
	L237.77,94.888c-0.372-0.643-0.161-1.431,0.482-1.802l2.284-1.32c0.571-0.33,1.431-0.161,1.802,0.482L261.441,125.296z"/>
<path fill="#D6DDE0" d="M277.424,83.328l13.041,27.032c0.287,0.594,0.054,1.439-0.615,1.762l-2.376,1.146
	c-0.668,0.322-1.475-0.021-1.762-0.615l-13.041-27.032c-1.003-2.08-3.535-2.963-5.615-1.96c-2.154,1.039-3.038,3.571-2.035,5.651
	l13.042,27.032c0.287,0.594,0.053,1.439-0.615,1.761l-2.376,1.146c-0.668,0.323-1.475-0.021-1.761-0.615l-13.042-27.032
	c-2.257-4.679-0.258-10.404,4.495-12.697C269.442,76.65,275.167,78.649,277.424,83.328z"/>
<path fill="#D6DDE0" d="M300.362,65.138l0.953,2.46c0.268,0.692-0.062,1.439-0.753,1.707l-3.46,1.34l12.36,31.909
	c0.238,0.615-0.062,1.438-0.753,1.707l-2.46,0.953c-0.692,0.268-1.469-0.139-1.707-0.753l-12.36-31.909l-3.46,1.34
	c-0.692,0.268-1.438-0.062-1.707-0.754l-0.953-2.46c-0.268-0.692,0.062-1.438,0.753-1.707l11.841-4.587
	C299.347,64.117,300.094,64.446,300.362,65.138z"/>
<path fill="#D6DDE0" d="M321.458,62.262l3.562,11.93l6.874-2.052c0.711-0.212,1.429,0.176,1.642,0.887l0.755,2.528
	c0.212,0.711-0.176,1.429-0.887,1.642l-6.874,2.052l3.586,12.01l6.874-2.052c0.711-0.212,1.429,0.175,1.642,0.887l0.755,2.528
	c0.212,0.711-0.175,1.429-0.887,1.642l-9.402,2.807c-1.422,0.425-2.882-0.43-3.283-1.773l-10.167-34.053
	c-0.425-1.422,0.351-2.859,1.773-3.283l9.402-2.807c0.711-0.212,1.429,0.175,1.642,0.887l0.755,2.528
	c0.212,0.711-0.176,1.429-0.887,1.642L321.458,62.262z"/>
<path fill="#D6DDE0" d="M365.307,59.867c0.551,2.665,0.002,5.304-1.424,7.367c2.127,1.329,3.661,3.453,4.211,6.118l2.487,12.032
	c0.134,0.646-0.298,1.409-1.025,1.559l-2.584,0.534c-0.727,0.15-1.425-0.379-1.559-1.025l-2.487-12.032
	c-0.467-2.261-2.708-3.734-4.969-3.267l-4.118,0.852l3.338,16.149c0.133,0.646-0.379,1.426-1.025,1.56l-2.584,0.534
	c-0.727,0.15-1.426-0.379-1.559-1.025l-7.462-36.095c-0.3-1.454,0.596-2.818,2.05-3.118l6.702-1.386
	c5.168-1.068,10.154,2.279,11.206,7.367L365.307,59.867z M359.337,57.06c-0.467-2.261-2.708-3.734-4.97-3.267l-4.118,0.852
	l2.521,12.193l4.118-0.852c2.261-0.467,3.734-2.708,3.25-5.05L359.337,57.06z"/>
<path fill="#D6DDE0" d="M399.41,51.336l3.301,29.75c0.082,0.738-0.428,1.375-1.166,1.457l-2.623,0.291
	c-0.738,0.082-1.375-0.428-1.457-1.166l-1.81-16.309l-8.441,0.937l1.81,16.309c0.082,0.738-0.428,1.375-1.166,1.457l-2.623,0.291
	c-0.738,0.082-1.375-0.428-1.457-1.166l-3.301-29.75c-0.573-5.163,3.216-9.897,8.461-10.479
	C394.103,42.384,398.837,46.173,399.41,51.336z M394.165,51.918c-0.254-2.295-2.349-3.971-4.643-3.716
	c-2.377,0.264-4.053,2.357-3.798,4.652l0.909,8.195l8.441-0.937L394.165,51.918z"/>
<path fill="#D6DDE0" d="M429.301,52.68l-0.053-2.803c-0.044-2.309-1.976-4.169-4.284-4.125c-2.309,0.044-4.169,1.976-4.125,4.284
	l0.412,21.848c0.044,2.308,1.976,4.168,4.284,4.125s4.169-1.976,4.125-4.284l-0.058-3.05c-0.014-0.742,0.552-1.33,1.294-1.344
	l2.639-0.05c0.742-0.014,1.33,0.552,1.344,1.294l0.058,3.05c0.098,5.194-4.108,9.562-9.302,9.66c-5.276,0.1-9.562-4.108-9.66-9.302
	l-0.412-21.848c-0.099-5.194,4.025-9.561,9.302-9.66c5.193-0.098,9.562,4.108,9.66,9.302l0.053,2.803
	c0.014,0.742-0.553,1.33-1.294,1.344l-2.639,0.05C429.902,53.989,429.314,53.422,429.301,52.68z"/>
<path fill="#D6DDE0" d="M462.041,42.751l-0.152,2.634c-0.043,0.741-0.652,1.284-1.394,1.241l-3.704-0.215l-1.982,34.163
	c-0.038,0.659-0.652,1.284-1.394,1.241l-2.635-0.153c-0.74-0.043-1.278-0.735-1.24-1.394l1.982-34.163l-3.705-0.215
	c-0.74-0.043-1.283-0.652-1.24-1.394l0.152-2.634c0.043-0.741,0.653-1.284,1.394-1.241l12.678,0.736
	C461.542,41.401,462.084,42.01,462.041,42.751z"/>
<path fill="#D6DDE0" d="M476.7,82.642c-0.09,0.736-0.732,1.24-1.469,1.15l-2.619-0.319c-0.737-0.089-1.24-0.732-1.15-1.469
	l4.613-37.896c0.09-0.736,0.732-1.24,1.469-1.15l2.619,0.319c0.655,0.08,1.24,0.732,1.15,1.469L476.7,82.642z"/>
<path fill="#D6DDE0" d="M516.2,50.781l-4.992,25.156c-0.37,1.86-1.289,3.527-2.564,4.872l-5.893,6.818
	c-0.323,0.356-0.776,0.519-1.262,0.422l-4.529-0.898c-0.485-0.097-0.842-0.419-1.004-0.872l-2.843-8.551
	c-0.666-1.729-0.879-3.621-0.51-5.481l4.992-25.156c0.145-0.728,0.823-1.182,1.551-1.038l2.589,0.514
	c0.728,0.145,1.182,0.823,1.037,1.551l-4.992,25.156c-0.097,0.485-0.096,0.906-0.014,1.342l2.502,7.727l5.344-6.169
	c0.161-0.389,0.322-0.777,0.419-1.262l4.992-25.156c0.145-0.728,0.903-1.166,1.551-1.038l2.588,0.514
	C515.891,49.375,516.345,50.053,516.2,50.781z"/>
<path fill="#D6DDE0" d="M536.556,59.995l-3.475,11.956l6.889,2.002c0.712,0.207,1.105,0.922,0.898,1.635l-0.736,2.534
	c-0.207,0.713-0.923,1.106-1.635,0.899l-6.889-2.002l-3.498,12.035l6.889,2.001c0.713,0.208,1.105,0.923,0.898,1.635l-0.736,2.534
	c-0.207,0.712-0.922,1.106-1.635,0.898l-9.422-2.738c-1.426-0.415-2.188-1.924-1.798-3.27l9.918-34.126
	c0.414-1.425,1.845-2.211,3.27-1.797l9.423,2.738c0.712,0.207,1.105,0.922,0.898,1.635l-0.736,2.534
	c-0.207,0.712-0.923,1.105-1.635,0.898L536.556,59.995z"/>
<path fill="#D6DDE0" d="M588.497,86.6l1.148-2.557c0.947-2.106-0.006-4.613-2.111-5.56c-2.106-0.946-4.613,0.006-5.56,2.112
	c-0.439,0.978-0.439,0.978-0.349,1.38l4.235,18.537c0.723,3.218,0.723,3.218-0.358,5.625c-2.129,4.738-7.798,6.892-12.536,4.762
	c-4.738-2.129-6.892-7.797-4.763-12.536l1.149-2.558c0.305-0.677,1.067-0.966,1.744-0.662l2.407,1.081
	c0.677,0.304,0.967,1.067,0.662,1.744l-1.149,2.558c-0.946,2.105,0.007,4.613,2.112,5.559c2.106,0.946,4.613-0.006,5.56-2.112
	c0.439-0.978,0.439-0.978,0.349-1.38l-4.235-18.537c-0.724-3.218-0.724-3.218,0.358-5.625c2.129-4.738,7.798-6.892,12.536-4.762
	s6.892,7.798,4.762,12.536l-1.148,2.557c-0.305,0.677-1.067,0.967-1.744,0.663l-2.407-1.082
	C588.482,88.04,588.192,87.276,588.497,86.6z"/>
<path fill="#D6DDE0" d="M624.784,102.406l-10.703,18.958c-2.595,4.596-8.438,6.221-12.961,3.667
	c-4.596-2.595-6.222-8.437-3.627-13.033l10.703-18.958c2.555-4.524,8.396-6.149,12.992-3.555
	C625.713,92.04,627.339,97.882,624.784,102.406z M620.188,99.811c1.135-2.01,0.416-4.595-1.595-5.729
	c-2.082-1.176-4.666-0.457-5.802,1.554l-10.703,18.958c-1.176,2.082-0.456,4.667,1.626,5.842c2.011,1.135,4.595,0.416,5.771-1.667
	L620.188,99.811z"/>
<path fill="#D6DDE0" d="M634.254,141.25l-1.487,2.179c-0.372,0.545-1.221,0.764-1.834,0.346l-8.035-5.486
	c-1.226-0.837-1.482-2.509-0.691-3.667l20.782-30.44c0.419-0.613,1.221-0.764,1.834-0.346l2.179,1.488
	c0.545,0.372,0.765,1.221,0.346,1.833l-19.295,28.261l5.856,3.999C634.521,139.835,634.673,140.638,634.254,141.25z"/>
<path fill="#D6DDE0" d="M679.89,131.598l-18.755,23.33c-3.307,4.113-9.335,4.769-13.384,1.514
	c-4.113-3.307-4.769-9.335-1.462-13.449l18.755-23.33c0.465-0.578,1.341-0.615,1.854-0.202l2.057,1.653
	c0.578,0.465,0.667,1.277,0.202,1.855l-18.755,23.33c-1.499,1.864-1.209,4.53,0.655,6.029c1.8,1.447,4.466,1.157,5.964-0.707
	l18.755-23.33c0.465-0.579,1.277-0.667,1.855-0.202l2.057,1.653C680.267,130.208,680.354,131.02,679.89,131.598z"/>
<path fill="#D6DDE0" d="M702.97,152.708l-1.823,1.907c-0.513,0.537-1.329,0.555-1.865,0.042l-2.682-2.564l-23.646,24.734
	c-0.456,0.477-1.329,0.555-1.865,0.042l-1.907-1.823c-0.536-0.513-0.498-1.389-0.042-1.865l23.646-24.734l-2.683-2.564
	c-0.536-0.513-0.555-1.329-0.042-1.865l1.823-1.907c0.513-0.536,1.329-0.555,1.865-0.042l9.179,8.774
	C703.464,151.355,703.482,152.171,702.97,152.708z"/>
<path fill="#D6DDE0" d="M688.274,192.576c-0.546,0.502-1.361,0.469-1.864-0.076l-1.788-1.94c-0.503-0.545-0.47-1.361,0.076-1.864
	l28.068-25.872c0.545-0.503,1.361-0.47,1.864,0.076l1.788,1.94c0.446,0.485,0.469,1.361-0.076,1.864L688.274,192.576z"/>
<path fill="#D6DDE0" d="M732.711,198.959l-17.056,13.527c-4.135,3.279-10.158,2.584-13.387-1.486
	c-3.279-4.135-2.584-10.159,1.551-13.438l17.056-13.527c4.07-3.228,10.094-2.533,13.373,1.602
	C737.477,189.708,736.781,195.731,732.711,198.959z M729.432,194.825c1.81-1.435,2.116-4.099,0.682-5.908
	c-1.485-1.874-4.15-2.181-5.959-0.746l-17.056,13.527c-1.874,1.486-2.182,4.15-0.695,6.024c1.435,1.809,4.099,2.117,5.973,0.631
	L729.432,194.825z"/>
<path fill="#D6DDE0" d="M752.66,228.034l-25.155,16.374c-0.553,0.36-1.42,0.236-1.825-0.386l-1.439-2.211
	c-0.404-0.622-0.167-1.466,0.386-1.826l25.155-16.374c1.936-1.26,2.49-3.884,1.23-5.819c-1.305-2.004-3.929-2.559-5.863-1.299
	l-25.155,16.374c-0.553,0.36-1.421,0.236-1.825-0.386l-1.439-2.211c-0.405-0.622-0.167-1.466,0.386-1.826l25.155-16.374
	c4.354-2.834,10.286-1.58,13.165,2.843C758.269,219.268,757.014,225.2,752.66,228.034z"/>
<path fill="#D6DDE0" d="M764.414,254.6l2.479-1.309c2.042-1.078,2.834-3.641,1.756-5.683c-1.078-2.042-3.641-2.833-5.683-1.755
	c-0.947,0.5-0.947,0.5-1.124,0.873l-8.066,17.22c-1.409,2.982-1.409,2.982-3.743,4.214c-4.594,2.425-10.388,0.635-12.812-3.959
	c-2.426-4.594-0.636-10.388,3.958-12.813l2.479-1.309c0.656-0.347,1.437-0.105,1.783,0.551l1.231,2.333
	c0.347,0.656,0.105,1.436-0.551,1.783l-2.479,1.309c-2.042,1.078-2.833,3.64-1.755,5.682c1.077,2.042,3.64,2.833,5.682,1.756
	c0.948-0.5,0.948-0.5,1.124-0.874l8.066-17.22c1.41-2.982,1.41-2.982,3.743-4.214c4.595-2.425,10.389-0.635,12.813,3.958
	c2.426,4.594,0.636,10.388-3.959,12.813l-2.479,1.309c-0.657,0.346-1.437,0.105-1.783-0.551l-1.231-2.333
	C763.517,255.727,763.757,254.946,764.414,254.6z"/>
<path fill="#D6DDE0" d="M764.062,594.955c-2.449-1.184-4.136-3.189-4.869-5.65c-2.385,0.953-5.078,0.842-7.527-0.343l-3.563-1.723
	c-4.751-2.297-6.745-8.023-4.484-12.7l3.015-6.235c0.646-1.336,2.262-1.837,3.524-1.228l31.994,15.469
	c1.337,0.646,1.873,2.188,1.228,3.523l-3.015,6.236c-2.261,4.676-7.987,6.67-12.738,4.373L764.062,594.955z M759.653,582.291
	l1.866-3.86l-11.21-5.419l-1.866,3.86c-1.005,2.078-0.123,4.611,1.956,5.616l3.563,1.723
	C756.115,585.251,758.648,584.37,759.653,582.291z M769.923,591.926c2.152,1.041,4.686,0.159,5.69-1.919l1.866-3.86l-11.209-5.42
	l-1.866,3.86c-1.005,2.079-0.123,4.611,1.955,5.616L769.923,591.926z"/>
<path fill="#D6DDE0" d="M750.196,627.29l-18.623-11.271c-4.515-2.732-5.963-8.62-3.272-13.064c2.732-4.515,8.62-5.963,13.135-3.23
	l18.623,11.271c4.444,2.689,5.893,8.578,3.16,13.093C760.529,628.532,754.641,629.979,750.196,627.29z M752.929,622.775
	c1.976,1.195,4.58,0.555,5.775-1.42c1.238-2.046,0.598-4.65-1.378-5.846l-18.623-11.271c-2.045-1.238-4.649-0.598-5.888,1.448
	c-1.195,1.976-0.555,4.579,1.49,5.817L752.929,622.775z"/>
<path fill="#D6DDE0" d="M729.888,656.125L712.4,643.162c-4.239-3.143-5.13-9.141-2.037-13.313c3.143-4.239,9.141-5.13,13.38-1.987
	l17.487,12.963c4.173,3.094,5.063,9.091,1.921,13.33C740.058,658.327,734.061,659.218,729.888,656.125z M733.03,651.885
	c1.854,1.375,4.507,0.98,5.882-0.874c1.424-1.921,1.03-4.573-0.824-5.948L720.601,632.1c-1.921-1.425-4.574-1.03-5.998,0.891
	c-1.375,1.854-0.98,4.508,0.94,5.932L733.03,651.885z"/>
<path fill="#D6DDE0" d="M703.987,680.219c-2.025-1.817-3.09-4.213-3.111-6.78c-2.556,0.255-5.112-0.6-7.138-2.417l-2.946-2.643
	c-3.928-3.524-4.255-9.579-0.786-13.446l4.626-5.155c0.991-1.104,2.683-1.138,3.727-0.201l26.45,23.734
	c1.105,0.991,1.193,2.622,0.202,3.727l-4.626,5.155c-3.47,3.866-9.524,4.193-13.452,0.669L703.987,680.219z M703.263,666.829
	l2.863-3.191l-9.267-8.315l-2.864,3.191c-1.542,1.718-1.396,4.396,0.321,5.938l2.946,2.643
	C699.042,668.692,701.721,668.546,703.263,666.829z M710.457,678.934c1.78,1.598,4.458,1.452,6-0.266l2.863-3.191l-9.267-8.315
	l-2.863,3.191c-1.542,1.718-1.397,4.396,0.321,5.938L710.457,678.934z"/>
<path fill="#D6DDE0" d="M681.708,707.461l-14.78-15.984c-3.583-3.875-3.346-9.935,0.469-13.461
	c3.875-3.583,9.935-3.346,13.518,0.529l14.78,15.984c3.526,3.814,3.289,9.874-0.586,13.457
	C691.294,711.513,685.234,711.276,681.708,707.461z M685.583,703.878c1.567,1.695,4.247,1.801,5.942,0.233
	c1.756-1.624,1.861-4.304,0.294-5.999l-14.78-15.984c-1.623-1.756-4.304-1.861-6.06-0.237c-1.695,1.567-1.8,4.247-0.177,6.003
	L685.583,703.878z"/>
<path fill="#D6DDE0" d="M654.252,729.532l-13.226-17.29c-3.206-4.191-2.405-10.201,1.721-13.357
	c4.191-3.206,10.202-2.405,13.408,1.786l13.225,17.289c3.156,4.126,2.355,10.137-1.836,13.343
	C663.418,734.458,657.407,733.658,654.252,729.532z M658.443,726.326c1.402,1.834,4.061,2.188,5.895,0.785
	c1.899-1.453,2.253-4.111,0.851-5.945l-13.225-17.289c-1.453-1.899-4.111-2.254-6.011-0.801c-1.834,1.402-2.188,4.062-0.735,5.96
	L658.443,726.326z"/>
<path fill="#D6DDE0" d="M604.271,726.102c-0.371-0.643-0.16-1.431,0.482-1.803l2.284-1.32c0.643-0.371,1.431-0.16,1.802,0.482
	l19.104,33.049c0.371,0.643,0.16,1.431-0.481,1.803l-2.284,1.32c-0.571,0.33-1.432,0.16-1.803-0.482L604.271,726.102z"/>
<path fill="#D6DDE0" d="M588.304,768.064l-13.041-27.033c-0.287-0.594-0.054-1.438,0.615-1.761l2.376-1.146
	c0.668-0.322,1.475,0.021,1.762,0.614l13.041,27.033c1.003,2.079,3.535,2.963,5.615,1.96c2.153-1.039,3.037-3.571,2.034-5.65
	l-13.041-27.032c-0.287-0.595-0.054-1.439,0.614-1.762l2.377-1.146c0.668-0.322,1.475,0.021,1.762,0.615l13.041,27.032
	c2.257,4.679,0.259,10.403-4.494,12.696C596.286,774.741,590.561,772.743,588.304,768.064z"/>
<path fill="#D6DDE0" d="M565.351,786.258l-0.953-2.46c-0.269-0.692,0.062-1.438,0.754-1.707l3.46-1.34l-12.361-31.909
	c-0.238-0.615,0.062-1.438,0.754-1.707l2.46-0.953c0.692-0.269,1.469,0.139,1.707,0.754l12.361,31.909l3.46-1.341
	c0.691-0.268,1.438,0.062,1.707,0.754l0.953,2.46c0.268,0.692-0.062,1.439-0.754,1.707l-11.841,4.587
	C566.365,787.281,565.618,786.951,565.351,786.258z"/>
<path fill="#D6DDE0" d="M544.253,789.136l-3.562-11.931l-6.873,2.053c-0.712,0.212-1.43-0.176-1.642-0.887l-0.755-2.528
	c-0.213-0.711,0.175-1.43,0.887-1.642l6.873-2.053l-3.585-12.009l-6.874,2.052c-0.711,0.213-1.43-0.176-1.642-0.887l-0.755-2.528
	c-0.213-0.711,0.176-1.429,0.887-1.642l9.402-2.807c1.422-0.425,2.882,0.43,3.283,1.773l10.167,34.053
	c0.425,1.422-0.352,2.858-1.773,3.283l-9.402,2.808c-0.711,0.212-1.429-0.176-1.642-0.887l-0.755-2.528
	c-0.212-0.711,0.176-1.43,0.887-1.642L544.253,789.136z"/>
<path fill="#D6DDE0" d="M500.407,791.53c-0.552-2.665-0.002-5.304,1.424-7.367c-2.127-1.328-3.661-3.453-4.212-6.118l-2.487-12.031
	c-0.134-0.646,0.298-1.409,1.024-1.56l2.584-0.534c0.728-0.15,1.426,0.379,1.56,1.025l2.487,12.031
	c0.467,2.262,2.708,3.734,4.97,3.268l4.118-0.852l-3.339-16.15c-0.134-0.646,0.379-1.426,1.025-1.559l2.584-0.534
	c0.727-0.15,1.425,0.379,1.559,1.024l7.462,36.096c0.301,1.453-0.597,2.817-2.05,3.118l-6.702,1.385
	c-5.168,1.068-10.154-2.279-11.206-7.366L500.407,791.53z M506.376,794.337c0.468,2.261,2.709,3.734,4.97,3.267l4.118-0.851
	l-2.521-12.193l-4.118,0.852c-2.262,0.467-3.734,2.708-3.25,5.05L506.376,794.337z"/>
<path fill="#D6DDE0" d="M466.302,800.061L463,770.311c-0.081-0.737,0.429-1.375,1.166-1.457l2.623-0.291
	c0.737-0.082,1.374,0.429,1.456,1.166l1.811,16.309l8.44-0.937l-1.81-16.309c-0.082-0.737,0.429-1.375,1.166-1.457l2.623-0.291
	c0.737-0.082,1.374,0.429,1.456,1.166l3.302,29.749c0.572,5.164-3.216,9.898-8.461,10.48
	C471.609,809.012,466.874,805.224,466.302,800.061z M471.547,799.479c0.255,2.294,2.349,3.97,4.644,3.716
	c2.376-0.264,4.052-2.358,3.798-4.653l-0.91-8.195l-8.44,0.937L471.547,799.479z"/>
<path fill="#D6DDE0" d="M436.412,798.718l0.053,2.803c0.044,2.309,1.976,4.169,4.284,4.125c2.309-0.043,4.169-1.976,4.125-4.283
	l-0.412-21.848c-0.044-2.309-1.976-4.169-4.284-4.125c-2.309,0.043-4.169,1.975-4.125,4.283l0.058,3.051
	c0.014,0.742-0.552,1.33-1.294,1.344l-2.639,0.05c-0.742,0.015-1.33-0.552-1.344-1.294l-0.058-3.051
	c-0.098-5.193,4.108-9.562,9.302-9.66c5.276-0.1,9.562,4.108,9.66,9.303l0.412,21.848c0.099,5.193-4.025,9.56-9.302,9.659
	c-5.193,0.099-9.562-4.107-9.66-9.302l-0.053-2.803c-0.014-0.742,0.553-1.33,1.294-1.344l2.639-0.051
	C435.811,797.41,436.398,797.976,436.412,798.718z"/>
<path fill="#D6DDE0" d="M403.653,808.647l0.153-2.635c0.043-0.741,0.653-1.283,1.394-1.24l3.705,0.215l1.982-34.163
	c0.038-0.659,0.653-1.284,1.394-1.241l2.634,0.153c0.741,0.043,1.279,0.734,1.241,1.393l-1.982,34.164l3.705,0.215
	c0.74,0.043,1.283,0.652,1.24,1.394l-0.152,2.634c-0.043,0.741-0.653,1.284-1.394,1.241l-12.678-0.735
	C404.153,809.998,403.61,809.387,403.653,808.647z"/>
<path fill="#D6DDE0" d="M389.012,768.755c0.09-0.736,0.732-1.239,1.469-1.15l2.619,0.319c0.736,0.09,1.24,0.732,1.15,1.469
	l-4.613,37.896c-0.089,0.737-0.732,1.24-1.469,1.15l-2.619-0.318c-0.655-0.08-1.24-0.732-1.15-1.47L389.012,768.755z"/>
<path fill="#D6DDE0" d="M349.512,800.616l4.992-25.156c0.369-1.86,1.289-3.527,2.564-4.872l5.893-6.817
	c0.323-0.356,0.775-0.519,1.261-0.422l4.53,0.898c0.485,0.097,0.841,0.42,1.004,0.872l2.843,8.551
	c0.666,1.729,0.879,3.622,0.51,5.482l-4.992,25.155c-0.145,0.729-0.823,1.182-1.551,1.037l-2.588-0.514
	c-0.728-0.145-1.182-0.822-1.037-1.551l4.992-25.155c0.096-0.485,0.096-0.906,0.014-1.343l-2.502-7.727l-5.344,6.17
	c-0.161,0.388-0.322,0.776-0.418,1.262l-4.992,25.156c-0.145,0.728-0.904,1.165-1.551,1.037l-2.588-0.514
	C349.821,802.022,349.368,801.343,349.512,800.616z"/>
<path fill="#D6DDE0" d="M329.158,791.401l3.474-11.955l-6.888-2.002c-0.713-0.207-1.106-0.923-0.899-1.636l0.736-2.533
	c0.207-0.713,0.922-1.105,1.635-0.898l6.888,2.002l3.498-12.035l-6.888-2.002c-0.713-0.207-1.106-0.923-0.899-1.635l0.736-2.534
	c0.208-0.713,0.922-1.105,1.635-0.898l9.422,2.738c1.425,0.414,2.189,1.924,1.797,3.27l-9.917,34.126
	c-0.415,1.425-1.845,2.211-3.27,1.797l-9.422-2.738c-0.712-0.207-1.106-0.922-0.899-1.635l0.736-2.533
	c0.208-0.713,0.923-1.106,1.635-0.899L329.158,791.401z"/>
<path fill="#D6DDE0" d="M277.216,764.8l-1.149,2.557c-0.946,2.106,0.006,4.613,2.112,5.56c2.105,0.946,4.613-0.006,5.559-2.112
	c0.439-0.978,0.439-0.978,0.349-1.38l-4.235-18.536c-0.724-3.218-0.724-3.218,0.358-5.625c2.129-4.738,7.798-6.892,12.536-4.763
	c4.738,2.13,6.892,7.798,4.762,12.536l-1.149,2.558c-0.304,0.677-1.067,0.967-1.744,0.662l-2.407-1.081
	c-0.677-0.305-0.967-1.067-0.663-1.744l1.149-2.558c0.946-2.105-0.006-4.613-2.112-5.56s-4.613,0.007-5.56,2.112
	c-0.439,0.978-0.439,0.978-0.349,1.38l4.236,18.537c0.723,3.218,0.723,3.218-0.358,5.624c-2.129,4.738-7.797,6.892-12.536,4.763
	s-6.892-7.798-4.763-12.536l1.149-2.557c0.304-0.677,1.067-0.967,1.744-0.663l2.407,1.082
	C277.23,763.36,277.52,764.124,277.216,764.8z"/>
<path fill="#D6DDE0" d="M240.929,748.991l10.703-18.957c2.595-4.596,8.437-6.222,12.961-3.668c4.596,2.595,6.222,8.438,3.627,13.033
	l-10.704,18.957c-2.554,4.523-8.396,6.149-12.992,3.555C240,759.357,238.375,753.514,240.929,748.991z M245.524,751.585
	c-1.135,2.011-0.416,4.595,1.594,5.729c2.083,1.176,4.667,0.457,5.802-1.554l10.704-18.957c1.175-2.083,0.457-4.667-1.626-5.843
	c-2.011-1.135-4.595-0.416-5.771,1.667L245.524,751.585z"/>
<path fill="#D6DDE0" d="M231.458,710.146l1.488-2.179c0.372-0.545,1.221-0.765,1.833-0.346l8.036,5.486
	c1.226,0.837,1.482,2.509,0.691,3.667l-20.782,30.44c-0.418,0.613-1.221,0.765-1.833,0.346l-2.179-1.487
	c-0.545-0.372-0.764-1.221-0.346-1.834l19.294-28.262l-5.856-3.998C231.191,711.561,231.04,710.759,231.458,710.146z"/>
<path fill="#D6DDE0" d="M185.822,719.802l18.755-23.33c3.307-4.113,9.335-4.77,13.384-1.514c4.113,3.307,4.769,9.335,1.462,13.448
	l-18.755,23.33c-0.465,0.578-1.341,0.615-1.855,0.201l-2.057-1.653c-0.579-0.465-0.667-1.276-0.202-1.854l18.755-23.33
	c1.498-1.864,1.208-4.53-0.656-6.028c-1.799-1.447-4.466-1.157-5.964,0.707l-18.755,23.33c-0.465,0.578-1.276,0.666-1.855,0.201
	l-2.057-1.653C185.446,721.192,185.357,720.38,185.822,719.802z"/>
<path fill="#D6DDE0" d="M162.755,698.701l1.823-1.906c0.513-0.537,1.329-0.556,1.865-0.043l2.682,2.564l23.645-24.734
	c0.456-0.477,1.329-0.555,1.865-0.042l1.907,1.823c0.537,0.513,0.498,1.389,0.042,1.865l-23.645,24.734l2.682,2.563
	c0.536,0.514,0.555,1.329,0.042,1.865l-1.823,1.907c-0.513,0.537-1.329,0.556-1.865,0.042l-9.179-8.774
	C162.26,700.053,162.242,699.238,162.755,698.701z"/>
<path fill="#D6DDE0" d="M177.449,658.834c0.545-0.503,1.361-0.47,1.864,0.076l1.789,1.939c0.503,0.546,0.47,1.361-0.076,1.864
	l-28.068,25.879c-0.546,0.503-1.361,0.47-1.864-0.076l-1.789-1.939c-0.447-0.485-0.47-1.361,0.076-1.864L177.449,658.834z"/>
<path fill="#D6DDE0" d="M133.001,652.439l17.056-13.527c4.135-3.279,10.159-2.584,13.387,1.485
	c3.279,4.135,2.584,10.159-1.55,13.438l-17.056,13.527c-4.07,3.228-10.094,2.532-13.374-1.603
	C128.235,661.691,128.931,655.667,133.001,652.439z M136.28,656.574c-1.809,1.435-2.117,4.099-0.682,5.907
	c1.486,1.874,4.15,2.182,5.959,0.747l17.056-13.527c1.874-1.486,2.181-4.15,0.695-6.024c-1.435-1.809-4.099-2.116-5.973-0.63
	L136.28,656.574z"/>
<path fill="#D6DDE0" d="M113.051,623.365l25.155-16.374c0.553-0.36,1.42-0.236,1.825,0.386l1.439,2.212
	c0.405,0.622,0.167,1.465-0.386,1.825l-25.155,16.374c-1.935,1.259-2.49,3.883-1.23,5.818c1.305,2.004,3.929,2.559,5.864,1.3
	l25.155-16.374c0.553-0.36,1.42-0.236,1.825,0.386l1.439,2.212c0.405,0.621,0.167,1.465-0.386,1.825l-25.155,16.374
	c-4.354,2.833-10.287,1.579-13.166-2.844C107.443,632.131,108.697,626.199,113.051,623.365z"/>
<path fill="#D6DDE0" d="M101.299,596.798l-2.479,1.309c-2.042,1.078-2.833,3.641-1.755,5.683c1.078,2.042,3.641,2.833,5.682,1.756
	c0.948-0.501,0.948-0.501,1.125-0.874l8.066-17.22c1.409-2.981,1.409-2.981,3.743-4.214c4.594-2.425,10.388-0.635,12.813,3.959
	s0.635,10.388-3.959,12.813l-2.479,1.309c-0.656,0.347-1.437,0.105-1.783-0.551l-1.232-2.333c-0.347-0.656-0.105-1.437,0.551-1.783
	l2.479-1.309c2.042-1.078,2.834-3.641,1.756-5.683s-3.641-2.834-5.683-1.756c-0.948,0.501-0.948,0.501-1.124,0.873l-8.066,17.22
	c-1.41,2.982-1.41,2.982-3.743,4.215c-4.594,2.425-10.388,0.635-12.813-3.959c-2.425-4.595-0.635-10.388,3.958-12.813l2.479-1.309
	c0.656-0.347,1.436-0.105,1.783,0.551l1.232,2.333C102.197,595.671,101.956,596.452,101.299,596.798z"/>
<linearGradient id="SVGID_1_" gradientUnits="userSpaceOnUse" x1="432.8564" y1="101.8828" x2="432.8564" y2="749.3217">
	<stop  offset="0" style="stop-color:#AEBDCD"/>
	<stop  offset="1" style="stop-color:#74879C"/>
</linearGradient>
<path fill="url(#SVGID_1_)" d="M756.576,425.604c0-178.787-144.935-323.721-323.72-323.721s-323.72,144.934-323.72,323.721
	c0,6.639,0.224,13.224,0.618,19.759c16.192-28.12,35.229-57.79,47.867-73.586c16.033-20.042,44.091-38.365,54.398-49.817
	c10.307-11.453,37.22-43.519,42.946-54.971c5.726-11.453,17.751-78.448,24.623-84.174c6.871-5.727,20.708-9.734,31.827-10.307
	c11.119-0.573,26.007-5.154,26.58,6.872c0.572,12.024-19.469,26.913-21.76,34.929c-2.29,8.017-4.792,15.402-1.874,15.52
	c0.92,0.037,4.233,1.45,5.501-1.205c6.107-12.788,22.151-37.029,34.166-45.809c14.888-10.88,32.066-8.017,45.236-4.008
	s24.05,6.871,21.76,12.597c-2.291,5.727-44.092,14.888-45.237,25.195c-0.198,1.776-1.692,7.3,1.336,7.062
	c21.951-1.718,58.556,0.731,65.659,2.672c17.442,4.764,70.432,28.058,87.038,34.357c16.605,6.299,32.616,5.726,40.357,10.879
	c3.139,2.089,3.572,6.826,3.058,12.239c29.092,0.612,94.012,1.164,100.881,6.658c7.637,6.107,7.635,64.896,0,83.983
	c-7.634,19.087-61.077,83.981-77.11,96.964c-16.033,12.978-41.993,33.592-65.66,34.357c-0.953,7.443-11.833,24.05-12.405,37.22
	c-0.573,13.17-0.022,68.226,51.23,175.824C680.3,667.149,756.576,555.292,756.576,425.604z"/>
<linearGradient id="SVGID_2_" gradientUnits="userSpaceOnUse" x1="341.9692" y1="171.2725" x2="341.9692" y2="769.3813">
	<stop  offset="0" style="stop-color:#8192A3"/>
	<stop  offset="1" style="stop-color:#4E5F75"/>
</linearGradient>
<path fill="url(#SVGID_2_)" d="M519.323,543.083c0.573-13.17,11.453-29.775,12.405-37.22c-23.667,0.763-51.152-25.197-60.314-56.499
	c-9.162-31.301-14.505-80.165-6.871-101.543c3.576-10.015,19.852-27.485,29.775-34.356c9.925-6.872,48.862-25.959,71.005-29.776
	c2.223,0.077,5.046,0.146,8.296,0.214c0.515-5.413,0.081-10.149-3.058-12.239c-7.741-5.153-23.752-4.581-40.358-10.879
	c-16.605-6.299-69.595-29.593-87.037-34.357c-7.104-1.94-43.709-4.39-65.66-2.672c-3.029,0.237-1.534-5.287-1.336-7.063
	c1.146-10.307,42.946-19.469,45.236-25.195c2.291-5.726-8.589-8.589-21.759-12.598c-13.17-4.008-30.349-6.871-45.237,4.008
	c-12.015,8.781-28.058,33.021-34.166,45.81c-1.269,2.655-4.581,1.241-5.501,1.204c-2.918-0.117-0.416-7.503,1.875-15.52
	c2.29-8.017,22.332-22.905,21.759-34.93s-15.46-7.444-26.58-6.871c-11.119,0.572-24.956,4.581-31.827,10.307
	c-6.872,5.727-18.896,72.722-24.623,84.175c-5.726,11.452-32.639,43.519-42.946,54.971c-10.307,11.452-38.365,29.776-54.398,49.817
	c-12.638,15.796-31.675,45.465-47.867,73.588c10.216,169.579,150.956,303.958,323.103,303.958
	c49.095,0,95.627-10.949,137.315-30.508C519.302,611.31,518.751,556.253,519.323,543.083z"/>
<linearGradient id="SVGID_3_" gradientUnits="userSpaceOnUse" x1="570.3838" y1="283.689" x2="570.3838" y2="505.8809">
	<stop  offset="0" style="stop-color:#BCC8D1"/>
	<stop  offset="1" style="stop-color:#ADBAC9"/>
</linearGradient>
<path fill="url(#SVGID_3_)" d="M621.059,327.208c-1.525-15.27,11.312-15.596,30.539-23.667
	c14.139-5.936,17.928-10.748,23.399-12.461c-0.164-0.188-0.325-0.383-0.497-0.519c-2.637-2.108-13.818-3.488-28.244-4.424
	c-23.168-1.502-54.707-1.856-72.637-2.233c-3.25-0.068-6.073-0.137-8.296-0.214c-22.143,3.817-61.08,22.905-71.005,29.776
	c-9.924,6.871-26.199,24.341-29.775,34.356c-7.634,21.378-2.291,70.242,6.871,101.543c9.162,31.302,36.647,57.262,60.314,56.499
	c23.668-0.763,49.628-21.377,65.661-34.357c16.033-12.979,69.477-77.875,77.11-96.963c2.867-7.172,4.659-19.949,5.373-33.431
	c-7.505,2.5-18.539,7.473-32.536,7.473C632.386,348.586,622.585,342.478,621.059,327.208z"/>
<linearGradient id="SVGID_4_" gradientUnits="userSpaceOnUse" x1="650.5811" y1="290.8071" x2="650.5811" y2="348.5861">
	<stop  offset="0" style="stop-color:#8493A1"/>
	<stop  offset="1" style="stop-color:#788B9E"/>
</linearGradient>
<path fill="url(#SVGID_4_)" d="M674.997,291.08c-5.472,1.713-9.261,6.525-23.399,12.461c-19.228,8.071-32.064,8.397-30.539,23.667
	c1.526,15.271,11.327,21.378,26.278,21.378c13.997,0,25.031-4.973,32.536-7.473C681.014,319.519,679.388,296.148,674.997,291.08z"/>
</svg>
