<?xml version="1.0" encoding="utf-8"?>
<!-- Generator: Adobe Illustrator 15.0.2, SVG Export Plug-In . SVG Version: 6.00 Build 0)  -->
<!DOCTYPE svg PUBLIC "-//W3C//DTD SVG 1.1//EN" "http://www.w3.org/Graphics/SVG/1.1/DTD/svg11.dtd">
<svg version="1.1" id="Layer_1" xmlns="http://www.w3.org/2000/svg" xmlns:xlink="http://www.w3.org/1999/xlink" x="0px" y="0px"
	 width="256px" height="256px" viewBox="0 0 256 256" enable-background="new 0 0 256 256" xml:space="preserve">
<path fill="#298BA3" d="M84.835,73.182H24.837C11.12,73.182,0,84.173,0,97.741v133.7C0,245.001,11.12,256,24.837,256h59.998
	c13.721,0,24.835-10.999,24.835-24.559v-133.7C109.67,84.173,98.556,73.182,84.835,73.182z M58.062,244.379h-6.051
	c-3.8,0-6.877-3.043-6.877-6.797c0-3.762,3.077-6.807,6.877-6.807h6.051c3.799,0,6.882,3.045,6.882,6.807
	C64.943,241.336,61.86,244.379,58.062,244.379z M94.865,219.428H15.212v-4.15h79.653V219.428z M94.865,211.277H15.212v-4h79.653
	V211.277z M94.865,203.277H15.212v-4h79.653V203.277z M94.865,195.277H15.212v-4h79.653V195.277z M94.865,187.277H15.212v-4h79.653
	V187.277z M94.865,179.277H15.212v-4h79.653V179.277z M94.865,171.277H15.212v-4h79.653V171.277z M94.865,163.277H15.212v-4h79.653
	V163.277z M94.865,155.277H15.212v-4h79.653V155.277z M94.865,147.277H15.212v-4h79.653V147.277z M94.865,139.277H15.212v-4h79.653
	V139.277z M94.865,131.277H15.212v-4h79.653V131.277z M94.865,123.278H15.212v-4h79.653V123.278z M94.865,115.278H15.212v-4h79.653
	V115.278z M94.865,107.278H15.212v-4h79.653V107.278z M94.865,99.278H15.212v-3.5h79.653V99.278z M94.865,91.778H15.212v-4h79.653
	V91.778z M136.061,69.864c0.684,1.432,0,3.554-1.549,5.101c-0.258,0.257-0.537,0.496-0.837,0.714
	c-2.137,1.551-4.528,1.479-5.33-0.196c-1.879-3.851-4.293-7.298-7.236-10.206c-2.894-2.907-6.291-5.322-10.105-7.15l0.018-0.012
	c-1.68-0.807-1.775-3.175-0.222-5.286c1.539-2.122,4.137-3.189,5.818-2.39c4.276,2.072,8.077,4.766,11.346,8.002
	C131.23,61.733,133.954,65.562,136.061,69.864z M184.749,66.409c-0.472,0.476-1.028,0.896-1.644,1.222
	c-2.271,1.179-4.379,0.543-4.723-1.414c-2.751-15.629-9.466-28.738-19.418-38.665c-9.945-9.92-23.076-16.614-38.751-19.369
	l0.021-0.014c-1.95-0.347-2.601-2.44-1.426-4.68c1.154-2.232,3.688-3.79,5.655-3.44C141.169,3,155.232,10.123,165.835,20.704
	c10.612,10.588,17.757,24.623,20.708,41.279C186.785,63.402,186.046,65.124,184.749,66.409z M160.666,62.873
	c0.457,1.45-0.277,3.376-1.7,4.798c-0.364,0.367-0.778,0.7-1.243,0.981c-2.193,1.376-4.457,1.012-5.037-0.804
	c-2.679-8.305-7.047-15.514-12.838-21.293c-5.77-5.755-12.917-10.099-21.172-12.728c-1.818-0.575-2.187-2.833-0.818-5.008
	c1.357-2.19,3.937-3.508,5.766-2.93c9.026,2.851,16.8,7.594,23.062,13.838C152.986,46.019,157.723,53.86,160.666,62.873z"/>
</svg>
