<?xml version="1.0" encoding="utf-8"?>
<!-- Generator: Adobe Illustrator 15.0.2, SVG Export Plug-In  -->
<!DOCTYPE svg PUBLIC "-//W3C//DTD SVG 1.1//EN" "http://www.w3.org/Graphics/SVG/1.1/DTD/svg11.dtd" [
	<!ENTITY ns_flows "http://ns.adobe.com/Flows/1.0/">
]>
<svg version="1.1"
	 xmlns="http://www.w3.org/2000/svg" xmlns:xlink="http://www.w3.org/1999/xlink" xmlns:a="http://ns.adobe.com/AdobeSVGViewerExtensions/3.0/"
	 x="0px" y="0px" width="350px" height="350px" viewBox="-10 -1 350 350"
	 overflow="visible" enable-background="new -10 -1 350 350" xml:space="preserve">
<defs>
</defs>
<linearGradient id="outer_circle_5_" gradientUnits="userSpaceOnUse" x1="165.4404" y1="21.7573" x2="165.4404" y2="347.999">
	<stop  offset="0" style="stop-color:#8F9AA8"/>
	<stop  offset="1" style="stop-color:#3D4857"/>
</linearGradient>
<path id="outer_circle_4_" fill="url(#outer_circle_5_)" fill-opacity="0.15" d="M329.616,164.146
	c2.787,14.516-10.117,21.757-10.117,35.248c0,13.489,6.745,23.062,2.828,34.05c-3.917,10.988-15.773,15.23-22.628,27.306
	c-6.854,12.075-2.575,21.649-11.351,31.439c-8.775,9.792-19.11,6.348-30.75,15.521c-11.64,9.175-13.599,17.878-21.867,23.426
	c-8.268,5.549-25.021,0.979-36.879,2.829c-11.858,1.85-20.781,13.925-33.508,14.033c-12.728,0.108-19.582-11.968-32.092-13.816
	c-12.512-1.85-23.281,2.829-34.704-0.979c-11.423-3.807-14.904-17.405-23.607-24.041c-8.703-6.637-23.973-8.922-32.602-16.646
	s-3.625-18.711-10.696-30.679c-7.072-11.966-19.69-16.862-23.933-29.699s3.698-18.167,3.154-29.917
	c-0.544-11.749-11.097-25.565-9.9-37.205c1.197-11.641,10.226-13.49,15.122-26.109c4.896-12.619,0.218-28.503,5.331-37.75
	s21.54-13.163,28.938-22.52c7.397-9.355,6.092-18.385,15.883-26.871c9.792-8.485,26-4.459,36.118-9.791s15.675-16.862,27.909-19.69
	c12.234-2.829,19.348,6.636,35.101,6.418c15.753-0.217,17.494-8.78,33.92-6.294c16.427,2.486,16.971,14.998,30.787,20.872
	c13.817,5.875,20.996-1.631,32.311,5.766c11.314,7.398,10.009,21.542,18.712,30.243c8.703,8.704,19.909,9.574,27.088,20.019
	c7.18,10.443,0.979,21.758,4.896,34.812C316.996,147.174,326.85,149.735,329.616,164.146z"/>
<linearGradient id="outer_circle_6_" gradientUnits="userSpaceOnUse" x1="164.5698" y1="0" x2="164.5698" y2="326.2412">
	<stop  offset="0" style="stop-color:#8F9AA8"/>
	<stop  offset="1" style="stop-color:#3D4857"/>
</linearGradient>
<path id="outer_circle_3_" fill="url(#outer_circle_6_)" d="M328.746,142.388c2.788,14.516-10.117,21.758-10.117,35.248
	c0,13.488,6.745,23.062,2.828,34.05c-3.916,10.988-15.774,15.231-22.628,27.307c-6.853,12.075-2.575,21.648-11.351,31.438
	c-8.775,9.792-19.109,6.349-30.75,15.522c-11.64,9.174-13.599,17.877-21.866,23.425c-8.269,5.549-25.021,0.979-36.879,2.829
	c-11.858,1.849-20.781,13.925-33.508,14.033s-19.582-11.968-32.092-13.816c-12.51-1.85-23.281,2.829-34.704-0.979
	c-11.423-3.808-14.904-17.406-23.607-24.042c-8.703-6.637-23.973-8.921-32.602-16.645c-8.629-7.725-3.625-18.712-10.696-30.679
	c-7.071-11.967-19.69-16.863-23.933-29.699c-4.243-12.838,3.699-18.168,3.154-29.917c-0.544-11.75-11.097-25.566-9.9-37.206
	c1.197-11.641,10.227-13.49,15.122-26.109c4.896-12.619,0.218-28.503,5.331-37.749c5.113-9.248,21.54-13.164,28.938-22.52
	c7.397-9.356,6.092-18.385,15.883-26.871c9.792-8.485,26-4.459,36.118-9.791c10.117-5.331,15.676-16.862,27.909-19.69
	c12.234-2.828,19.348,6.636,35.101,6.418c15.752-0.218,17.493-8.78,33.92-6.294c16.428,2.487,16.971,14.998,30.788,20.872
	c13.816,5.875,20.997-1.631,32.311,5.766c11.313,7.398,10.008,21.541,18.712,30.243c8.703,8.703,19.908,9.573,27.087,20.018
	c7.18,10.443,0.98,21.758,4.896,34.812C316.127,125.417,325.98,127.977,328.746,142.388z"/>
<path id="right_large_circle_fraction_1_" fill="none" stroke="#889FB0" stroke-miterlimit="10" d="M295.705,105.895
	c7.311,17.154,11.357,36.033,11.357,55.857c0,18.291-3.445,35.779-9.721,51.849"/>
<path id="right_medium_circle_fraction_1_" fill="none" stroke="#889FB0" stroke-miterlimit="10" d="M292.101,107.649
	c7.057,16.622,10.961,34.907,10.961,54.104c0,17.77-3.345,34.757-9.44,50.367"/>
<path id="right_small_circle_fraction_1_" fill="none" stroke="#889FB0" stroke-miterlimit="10" d="M288.513,109.459
	c6.786,16.076,10.537,33.746,10.537,52.293c0,17.195-3.225,33.638-9.104,48.755"/>
<path id="left_large_circle_fraction_1_" fill="none" stroke="#889FB0" stroke-miterlimit="10" d="M33.494,218.196
	c-7.469-17.31-11.607-36.394-11.607-56.443c0-17.418,3.124-34.106,8.84-49.535"/>
<path id="left_medium_circle_fraction_1_" fill="none" stroke="#889FB0" stroke-miterlimit="10" d="M36.839,215.856
	c-7.058-16.622-10.963-34.908-10.963-54.104c0-16.731,2.965-32.771,8.401-47.619"/>
<path id="left_small_circle_fraction_1_" fill="none" stroke="#889FB0" stroke-miterlimit="10" d="M40.15,213.36
	c-6.605-15.893-10.251-33.325-10.252-51.607c0-16.15,2.845-31.637,8.062-45.984"/>
<path fill="#D6DDE0" d="M38.571,97.55c0.931,0.449,1.572,1.211,1.852,2.146c0.906-0.363,1.929-0.321,2.86,0.127l1.354,0.653
	c1.806,0.871,2.565,3.046,1.708,4.824l-1.144,2.37c-0.245,0.508-0.858,0.699-1.338,0.467l-12.16-5.866
	c-0.508-0.245-0.712-0.831-0.467-1.338l1.143-2.37c0.857-1.778,3.032-2.537,4.838-1.666L38.571,97.55z M36.345,98.702
	c-0.818-0.395-1.78-0.059-2.161,0.731l-0.708,1.467l4.26,2.055l0.708-1.467c0.381-0.79,0.045-1.752-0.745-2.133L36.345,98.702z
	 M40.25,102.36l-0.708,1.467l4.26,2.055l0.708-1.467c0.381-0.79,0.045-1.752-0.745-2.133l-1.354-0.653
	C41.593,101.234,40.631,101.57,40.25,102.36z"/>
<path fill="#D6DDE0" d="M43.826,85.253l7.082,4.278c1.717,1.037,2.269,3.275,1.248,4.965c-1.037,1.717-3.274,2.269-4.991,1.232
	l-7.082-4.278c-1.69-1.021-2.242-3.259-1.205-4.976C39.898,84.785,42.136,84.232,43.826,85.253z M42.789,86.97
	c-0.751-0.454-1.741-0.209-2.195,0.542c-0.47,0.778-0.226,1.768,0.525,2.222l7.082,4.278c0.778,0.47,1.768,0.226,2.237-0.552
	c0.454-0.751,0.209-1.741-0.568-2.211L42.789,86.97z"/>
<path fill="#D6DDE0" d="M51.531,74.293l6.651,4.918c1.612,1.192,1.953,3.472,0.78,5.059c-1.192,1.612-3.471,1.954-5.083,0.761
	l-6.651-4.919c-1.587-1.173-1.928-3.452-0.736-5.064C47.665,73.461,49.944,73.12,51.531,74.293z M50.338,75.906
	c-0.706-0.521-1.713-0.371-2.235,0.335c-0.541,0.73-0.39,1.738,0.316,2.26l6.651,4.919c0.73,0.54,1.738,0.389,2.279-0.341
	c0.521-0.706,0.371-1.713-0.36-2.254L50.338,75.906z"/>
<path fill="#D6DDE0" d="M61.388,65.112c0.77,0.69,1.175,1.599,1.184,2.575c0.971-0.098,1.942,0.226,2.712,0.916l1.12,1.003
	c1.493,1.338,1.619,3.638,0.302,5.108l-1.756,1.959c-0.376,0.42-1.019,0.433-1.416,0.078l-10.056-9.01
	c-0.42-0.376-0.454-0.996-0.078-1.416l1.756-1.959c1.317-1.47,3.617-1.596,5.11-0.258L61.388,65.112z M58.93,65.602
	c-0.677-0.606-1.694-0.55-2.279,0.103l-1.087,1.213l3.523,3.157l1.087-1.213c0.585-0.653,0.53-1.67-0.124-2.256L58.93,65.602z
	 M61.667,70.199l-1.087,1.213l3.523,3.157l1.087-1.213c0.585-0.653,0.529-1.671-0.124-2.256l-1.12-1.003
	C63.269,69.49,62.252,69.546,61.667,70.199z"/>
<path fill="#D6DDE0" d="M69.857,54.744l5.62,6.071c1.362,1.472,1.273,3.774-0.175,5.115c-1.472,1.362-3.774,1.273-5.137-0.198
	l-5.62-6.071c-1.341-1.449-1.252-3.751,0.22-5.113C66.213,53.207,68.516,53.295,69.857,54.744z M68.385,56.106
	c-0.596-0.644-1.615-0.683-2.258-0.087c-0.667,0.617-0.707,1.636-0.11,2.279l5.62,6.071c0.617,0.667,1.636,0.706,2.303,0.089
	c0.644-0.596,0.683-1.615,0.066-2.281L68.385,56.106z"/>
<path fill="#D6DDE0" d="M80.286,46.356l5.027,6.566c1.219,1.592,0.916,3.875-0.651,5.075c-1.592,1.219-3.875,0.916-5.094-0.676
	l-5.027-6.566c-1.2-1.567-0.896-3.851,0.695-5.069C76.803,44.486,79.086,44.789,80.286,46.356z M78.694,47.575
	c-0.533-0.697-1.543-0.831-2.24-0.297c-0.721,0.552-0.855,1.562-0.322,2.259l5.027,6.566c0.552,0.721,1.562,0.855,2.284,0.303
	c0.696-0.533,0.831-1.543,0.278-2.265L78.694,47.575z"/>
<path fill="#D6DDE0" d="M99.296,47.634c0.142,0.244,0.062,0.543-0.183,0.685l-0.868,0.502c-0.244,0.142-0.543,0.062-0.685-0.183
	l-7.262-12.554c-0.142-0.244-0.062-0.543,0.183-0.685l0.868-0.502c0.217-0.125,0.543-0.061,0.685,0.183L99.296,47.634z"/>
<path fill="#D6DDE0" d="M105.363,31.684l4.96,10.27c0.109,0.226,0.021,0.547-0.233,0.669l-0.903,0.436
	c-0.254,0.123-0.561-0.008-0.669-0.233l-4.96-10.27c-0.382-0.79-1.344-1.125-2.134-0.744c-0.818,0.395-1.154,1.357-0.772,2.147
	l4.96,10.27c0.109,0.226,0.021,0.547-0.233,0.669l-0.903,0.436c-0.254,0.123-0.561-0.008-0.669-0.233l-4.96-10.27
	c-0.858-1.777-0.1-3.953,1.706-4.825C102.329,29.148,104.504,29.906,105.363,31.684z"/>
<path fill="#D6DDE0" d="M114.102,24.764l0.362,0.935c0.102,0.263-0.023,0.547-0.286,0.648l-1.314,0.51l4.699,12.12
	c0.09,0.234-0.023,0.546-0.286,0.648l-0.935,0.362c-0.263,0.102-0.558-0.052-0.648-0.286l-4.699-12.12l-1.314,0.509
	c-0.263,0.102-0.547-0.023-0.648-0.286l-0.362-0.935c-0.102-0.263,0.023-0.546,0.286-0.648l4.498-1.744
	C113.716,24.376,114,24.501,114.102,24.764z"/>
<path fill="#D6DDE0" d="M122.117,23.667l1.355,4.532l2.611-0.781c0.271-0.081,0.543,0.067,0.624,0.337l0.287,0.96
	c0.081,0.27-0.066,0.543-0.337,0.624l-2.611,0.781l1.364,4.562l2.611-0.78c0.271-0.081,0.543,0.066,0.624,0.336l0.287,0.96
	c0.081,0.27-0.066,0.543-0.337,0.624l-3.571,1.067c-0.541,0.162-1.095-0.163-1.248-0.673l-3.867-12.936
	c-0.162-0.54,0.133-1.086,0.673-1.248l3.572-1.068c0.27-0.081,0.543,0.067,0.624,0.337l0.287,0.96
	c0.081,0.27-0.066,0.543-0.336,0.624L122.117,23.667z"/>
<path fill="#D6DDE0" d="M138.78,22.752c0.209,1.013,0.001,2.016-0.541,2.8c0.808,0.504,1.391,1.312,1.601,2.325l0.946,4.572
	c0.051,0.246-0.113,0.536-0.389,0.593l-0.982,0.203c-0.276,0.057-0.542-0.144-0.593-0.39l-0.946-4.572
	c-0.178-0.859-1.029-1.419-1.889-1.241l-1.565,0.324l1.27,6.137c0.051,0.246-0.144,0.542-0.389,0.593l-0.982,0.203
	c-0.276,0.057-0.542-0.144-0.593-0.39l-2.837-13.716c-0.114-0.552,0.227-1.071,0.779-1.185l2.547-0.527
	c1.964-0.406,3.859,0.866,4.259,2.799L138.78,22.752z M136.511,21.685c-0.178-0.859-1.029-1.419-1.889-1.241l-1.565,0.324
	l0.958,4.634l1.565-0.324c0.859-0.178,1.419-1.03,1.235-1.919L136.511,21.685z"/>
<path fill="#D6DDE0" d="M151.75,19.505l1.257,11.305c0.031,0.28-0.163,0.522-0.443,0.554l-0.997,0.111
	c-0.28,0.031-0.523-0.163-0.554-0.443l-0.689-6.197l-3.208,0.356l0.689,6.198c0.031,0.28-0.163,0.522-0.443,0.554l-0.997,0.111
	c-0.28,0.031-0.522-0.163-0.554-0.443l-1.257-11.305c-0.218-1.962,1.221-3.762,3.214-3.983
	C149.731,16.104,151.531,17.543,151.75,19.505z M149.756,19.727c-0.097-0.872-0.893-1.509-1.765-1.412
	c-0.903,0.101-1.54,0.896-1.443,1.769l0.346,3.114l3.208-0.356L149.756,19.727z"/>
<path fill="#D6DDE0" d="M163.121,20.016l-0.021-1.065c-0.017-0.877-0.75-1.584-1.628-1.567c-0.877,0.017-1.584,0.751-1.567,1.628
	l0.158,8.302c0.017,0.877,0.751,1.584,1.628,1.567c0.877-0.017,1.584-0.75,1.567-1.628l-0.022-1.159
	c-0.005-0.282,0.21-0.505,0.492-0.511l1.002-0.019c0.282-0.005,0.505,0.209,0.511,0.492l0.022,1.159
	c0.038,1.974-1.561,3.634-3.534,3.671c-2.005,0.038-3.633-1.56-3.671-3.534l-0.158-8.302c-0.037-1.974,1.529-3.633,3.534-3.671
	c1.974-0.038,3.634,1.561,3.671,3.534l0.021,1.065c0.005,0.282-0.21,0.505-0.492,0.511l-1.002,0.019
	C163.349,20.513,163.126,20.298,163.121,20.016z"/>
<path fill="#D6DDE0" d="M175.589,16.245l-0.058,1.001c-0.016,0.282-0.248,0.488-0.529,0.472l-1.408-0.082l-0.754,12.981
	c-0.014,0.25-0.248,0.488-0.529,0.472l-1.001-0.058c-0.282-0.016-0.486-0.279-0.472-0.53l0.754-12.981l-1.408-0.082
	c-0.282-0.016-0.488-0.248-0.472-0.529l0.058-1.001c0.017-0.282,0.248-0.488,0.53-0.472l4.817,0.28
	C175.399,15.732,175.605,15.964,175.589,16.245z"/>
<path fill="#D6DDE0" d="M181.145,31.403c-0.034,0.28-0.278,0.471-0.558,0.437l-0.995-0.121c-0.28-0.034-0.471-0.278-0.437-0.558
	l1.752-14.398c0.034-0.28,0.278-0.471,0.558-0.437l0.995,0.121c0.249,0.03,0.471,0.278,0.437,0.558L181.145,31.403z"/>
<path fill="#D6DDE0" d="M196.155,19.3l-1.898,9.558c-0.14,0.707-0.49,1.34-0.974,1.851l-2.24,2.59
	c-0.123,0.135-0.294,0.197-0.479,0.16l-1.721-0.342c-0.185-0.037-0.32-0.159-0.381-0.331l-1.08-3.25
	c-0.253-0.657-0.334-1.375-0.193-2.083l1.898-9.558c0.055-0.276,0.313-0.449,0.589-0.394l0.983,0.195
	c0.277,0.055,0.449,0.313,0.394,0.589l-1.898,9.558c-0.037,0.185-0.037,0.344-0.006,0.51l0.95,2.936l2.031-2.344
	c0.062-0.147,0.123-0.295,0.159-0.479l1.898-9.558c0.055-0.276,0.343-0.443,0.589-0.394l0.983,0.195
	C196.037,18.766,196.209,19.024,196.155,19.3z"/>
<path fill="#D6DDE0" d="M203.919,22.806l-1.322,4.543l2.618,0.762c0.271,0.079,0.42,0.351,0.341,0.622l-0.28,0.963
	c-0.079,0.271-0.351,0.42-0.622,0.341l-2.618-0.762l-1.332,4.574l2.618,0.762c0.271,0.079,0.42,0.351,0.342,0.622l-0.28,0.963
	c-0.079,0.271-0.351,0.42-0.622,0.341l-3.581-1.042c-0.542-0.158-0.832-0.731-0.683-1.243l3.775-12.969
	c0.158-0.542,0.702-0.84,1.243-0.683l3.581,1.042c0.271,0.079,0.42,0.351,0.341,0.622l-0.28,0.963
	c-0.079,0.271-0.351,0.42-0.622,0.341L203.919,22.806z"/>
<path fill="#D6DDE0" d="M223.661,32.925l0.437-0.972c0.36-0.8-0.002-1.753-0.802-2.113s-1.753,0.002-2.113,0.802
	c-0.167,0.372-0.167,0.372-0.133,0.524l1.608,7.044c0.275,1.223,0.275,1.223-0.136,2.138c-0.809,1.8-2.963,2.619-4.764,1.809
	c-1.8-0.81-2.619-2.964-1.809-4.764l0.437-0.972c0.115-0.257,0.405-0.368,0.663-0.252l0.915,0.411
	c0.257,0.116,0.367,0.406,0.252,0.663l-0.437,0.972c-0.36,0.8,0.002,1.753,0.802,2.113s1.753-0.002,2.113-0.802
	c0.167-0.372,0.167-0.372,0.133-0.524l-1.608-7.044c-0.275-1.223-0.275-1.223,0.136-2.138c0.81-1.8,2.963-2.619,4.764-1.809
	c1.8,0.81,2.619,2.963,1.809,4.764l-0.437,0.972c-0.115,0.257-0.405,0.367-0.663,0.252l-0.915-0.411
	C223.655,33.472,223.545,33.182,223.661,32.925z"/>
<path fill="#D6DDE0" d="M237.457,38.942l-4.068,7.203c-0.986,1.746-3.207,2.363-4.925,1.393c-1.746-0.986-2.363-3.207-1.377-4.953
	l4.068-7.203c0.971-1.719,3.191-2.336,4.937-1.35C237.81,35.003,238.428,37.224,237.457,38.942z M235.71,37.956
	c0.432-0.764,0.159-1.746-0.605-2.178c-0.791-0.447-1.773-0.174-2.205,0.59l-4.068,7.203c-0.447,0.791-0.174,1.773,0.617,2.22
	c0.764,0.431,1.746,0.158,2.193-0.633L235.71,37.956z"/>
<path fill="#D6DDE0" d="M241.049,53.709l-0.566,0.828c-0.141,0.207-0.464,0.29-0.697,0.131l-3.052-2.087
	c-0.465-0.318-0.562-0.954-0.262-1.394l7.905-11.561c0.159-0.232,0.464-0.29,0.697-0.131l0.828,0.566
	c0.207,0.142,0.29,0.464,0.131,0.697l-7.339,10.733l2.224,1.521C241.151,53.171,241.208,53.476,241.049,53.709z"/>
<path fill="#D6DDE0" d="M258.399,50.052l-7.129,8.862c-1.257,1.562-3.547,1.811-5.085,0.574c-1.562-1.257-1.811-3.548-0.554-5.11
	l7.129-8.862c0.177-0.22,0.509-0.233,0.705-0.076l0.781,0.628c0.22,0.177,0.253,0.485,0.077,0.705l-7.129,8.862
	c-0.569,0.708-0.459,1.721,0.249,2.291c0.684,0.55,1.697,0.44,2.266-0.268l7.129-8.862c0.177-0.22,0.485-0.253,0.705-0.077
	l0.781,0.628C258.542,49.524,258.576,49.833,258.399,50.052z"/>
<path fill="#D6DDE0" d="M267.177,58.094l-0.693,0.724c-0.195,0.204-0.505,0.21-0.708,0.016l-1.019-0.975l-8.992,9.391
	c-0.173,0.181-0.505,0.21-0.708,0.016l-0.724-0.693c-0.204-0.195-0.188-0.528-0.016-0.709l8.992-9.391l-1.018-0.975
	c-0.204-0.195-0.21-0.505-0.016-0.709l0.693-0.724c0.195-0.204,0.505-0.21,0.709-0.015l3.485,3.337
	C267.366,57.58,267.372,57.89,267.177,58.094z"/>
<path fill="#D6DDE0" d="M261.583,73.238c-0.208,0.191-0.518,0.178-0.708-0.029l-0.679-0.738c-0.191-0.208-0.178-0.518,0.029-0.708
	l10.675-9.827c0.208-0.191,0.518-0.178,0.708,0.029l0.679,0.738c0.17,0.185,0.178,0.518-0.029,0.708L261.583,73.238z"/>
<path fill="#D6DDE0" d="M278.485,75.693L272,80.829c-1.572,1.245-3.862,0.979-5.087-0.568c-1.245-1.572-0.979-3.861,0.593-5.106
	l6.485-5.136c1.548-1.226,3.837-0.959,5.082,0.613C280.298,72.178,280.033,74.467,278.485,75.693z M277.24,74.121
	c0.688-0.545,0.806-1.558,0.261-2.245c-0.564-0.712-1.577-0.83-2.265-0.286l-6.485,5.136c-0.712,0.564-0.83,1.577-0.266,2.289
	c0.545,0.688,1.558,0.806,2.27,0.241L277.24,74.121z"/>
<path fill="#D6DDE0" d="M286.048,86.738l-9.564,6.215c-0.21,0.137-0.54,0.089-0.694-0.147l-0.546-0.841
	c-0.153-0.236-0.063-0.557,0.147-0.693l9.564-6.215c0.735-0.478,0.947-1.475,0.469-2.211c-0.495-0.762-1.492-0.974-2.228-0.496
	l-9.564,6.215c-0.21,0.137-0.54,0.089-0.693-0.147l-0.546-0.841c-0.154-0.237-0.063-0.557,0.147-0.694l9.564-6.215
	c1.655-1.076,3.91-0.597,5.002,1.084C288.182,83.408,287.704,85.662,286.048,86.738z"/>
<path fill="#D6DDE0" d="M290.519,96.86l0.943-0.497c0.776-0.409,1.078-1.382,0.669-2.159c-0.409-0.776-1.382-1.078-2.159-0.669
	c-0.36,0.19-0.36,0.19-0.427,0.332l-3.072,6.541c-0.537,1.132-0.537,1.132-1.424,1.6c-1.747,0.92-3.948,0.238-4.868-1.509
	c-0.92-1.747-0.237-3.948,1.509-4.868l0.943-0.497c0.25-0.131,0.545-0.04,0.677,0.21l0.467,0.887c0.131,0.25,0.04,0.546-0.21,0.677
	l-0.943,0.497c-0.776,0.409-1.078,1.382-0.669,2.159c0.409,0.776,1.383,1.078,2.159,0.669c0.36-0.189,0.36-0.189,0.427-0.331
	l3.072-6.541c0.537-1.133,0.537-1.133,1.424-1.6c1.747-0.92,3.948-0.237,4.868,1.509s0.238,3.948-1.509,4.868l-0.943,0.497
	c-0.25,0.131-0.546,0.04-0.677-0.21l-0.467-0.887C290.177,97.288,290.269,96.992,290.519,96.86z"/>
<path fill="#D6DDE0" d="M290.375,225.958c-0.931-0.449-1.572-1.211-1.852-2.146c-0.906,0.363-1.929,0.322-2.86-0.127l-1.354-0.653
	c-1.806-0.871-2.565-3.046-1.708-4.824l1.144-2.37c0.245-0.508,0.858-0.699,1.338-0.467l12.16,5.866
	c0.508,0.245,0.712,0.831,0.467,1.338l-1.143,2.37c-0.857,1.778-3.032,2.537-4.838,1.666L290.375,225.958z M288.695,221.147
	l0.708-1.467l-4.26-2.055l-0.708,1.467c-0.381,0.79-0.045,1.752,0.745,2.133l1.354,0.653
	C287.352,222.273,288.314,221.938,288.695,221.147z M292.6,224.805c0.818,0.395,1.78,0.059,2.161-0.731l0.708-1.467l-4.26-2.055
	l-0.708,1.467c-0.381,0.79-0.045,1.752,0.745,2.133L292.6,224.805z"/>
<path fill="#D6DDE0" d="M285.119,238.254l-7.082-4.278c-1.717-1.037-2.269-3.274-1.248-4.964c1.037-1.717,3.274-2.269,4.991-1.232
	l7.082,4.278c1.69,1.021,2.242,3.259,1.205,4.976C289.047,238.723,286.81,239.275,285.119,238.254z M286.156,236.537
	c0.751,0.454,1.741,0.209,2.195-0.542c0.47-0.778,0.226-1.768-0.525-2.222l-7.082-4.278c-0.778-0.47-1.768-0.226-2.237,0.552
	c-0.454,0.751-0.209,1.741,0.568,2.21L286.156,236.537z"/>
<path fill="#D6DDE0" d="M277.415,249.213l-6.651-4.918c-1.612-1.192-1.953-3.472-0.78-5.059c1.192-1.612,3.471-1.954,5.083-0.761
	l6.651,4.919c1.587,1.173,1.928,3.452,0.736,5.064C281.28,250.046,279.001,250.387,277.415,249.213z M278.607,247.601
	c0.706,0.521,1.713,0.371,2.235-0.335c0.541-0.73,0.39-1.738-0.316-2.26l-6.651-4.919c-0.73-0.54-1.738-0.389-2.279,0.341
	c-0.521,0.706-0.371,1.713,0.36,2.254L278.607,247.601z"/>
<path fill="#D6DDE0" d="M267.557,258.395c-0.77-0.69-1.175-1.599-1.184-2.575c-0.971,0.098-1.942-0.226-2.712-0.916l-1.12-1.003
	c-1.493-1.338-1.619-3.638-0.302-5.108l1.756-1.959c0.376-0.42,1.019-0.433,1.416-0.078l10.056,9.01
	c0.42,0.376,0.454,0.996,0.078,1.416l-1.756,1.959c-1.317,1.47-3.617,1.596-5.11,0.258L267.557,258.395z M267.278,253.308
	l1.087-1.213l-3.523-3.157l-1.087,1.213c-0.585,0.653-0.53,1.671,0.124,2.256l1.12,1.003
	C265.676,254.017,266.693,253.961,267.278,253.308z M270.015,257.905c0.676,0.606,1.694,0.55,2.279-0.103l1.087-1.213l-3.523-3.157
	l-1.087,1.213c-0.585,0.653-0.53,1.67,0.124,2.256L270.015,257.905z"/>
<path fill="#D6DDE0" d="M259.106,268.746l-5.62-6.071c-1.362-1.472-1.273-3.774,0.175-5.115c1.472-1.362,3.774-1.273,5.137,0.198
	l5.62,6.071c1.341,1.449,1.252,3.751-0.22,5.114C262.75,270.283,260.447,270.194,259.106,268.746z M260.578,267.383
	c0.596,0.644,1.615,0.683,2.258,0.087c0.667-0.618,0.707-1.636,0.11-2.28l-5.62-6.071c-0.617-0.667-1.636-0.706-2.303-0.089
	c-0.644,0.596-0.683,1.615-0.066,2.281L260.578,267.383z"/>
<path fill="#D6DDE0" d="M248.659,277.152l-5.027-6.566c-1.219-1.592-0.916-3.875,0.651-5.075c1.592-1.219,3.875-0.916,5.094,0.676
	l5.027,6.566c1.2,1.567,0.896,3.851-0.695,5.069C252.143,279.022,249.859,278.719,248.659,277.152z M250.251,275.934
	c0.533,0.696,1.543,0.831,2.24,0.297c0.721-0.552,0.855-1.562,0.322-2.259l-5.027-6.566c-0.552-0.721-1.562-0.855-2.284-0.303
	c-0.696,0.533-0.831,1.543-0.278,2.265L250.251,275.934z"/>
<path fill="#D6DDE0" d="M229.649,275.874c-0.142-0.244-0.062-0.543,0.183-0.685l0.868-0.502c0.244-0.141,0.543-0.062,0.685,0.183
	l7.262,12.554c0.142,0.244,0.062,0.543-0.183,0.685l-0.868,0.502c-0.217,0.125-0.543,0.061-0.685-0.183L229.649,275.874z"/>
<path fill="#D6DDE0" d="M223.583,291.823l-4.96-10.27c-0.109-0.226-0.021-0.547,0.233-0.669l0.903-0.436
	c0.254-0.123,0.561,0.008,0.669,0.233l4.96,10.27c0.382,0.79,1.344,1.125,2.134,0.744c0.818-0.395,1.154-1.357,0.772-2.147
	l-4.96-10.27c-0.109-0.226-0.021-0.547,0.233-0.669l0.903-0.436c0.254-0.123,0.561,0.008,0.669,0.233l4.96,10.27
	c0.858,1.777,0.1,3.953-1.706,4.825C226.617,294.359,224.441,293.601,223.583,291.823z"/>
<path fill="#D6DDE0" d="M214.844,298.743l-0.362-0.935c-0.102-0.263,0.023-0.547,0.286-0.648l1.314-0.51l-4.699-12.12
	c-0.09-0.233,0.023-0.546,0.286-0.648l0.935-0.362c0.263-0.102,0.558,0.053,0.648,0.286l4.699,12.12l1.314-0.509
	c0.263-0.102,0.547,0.023,0.648,0.286l0.362,0.935c0.102,0.263-0.023,0.546-0.286,0.648l-4.498,1.744
	C215.229,299.131,214.946,299.006,214.844,298.743z"/>
<path fill="#D6DDE0" d="M206.829,299.839l-1.355-4.532l-2.611,0.781c-0.271,0.081-0.543-0.067-0.624-0.337l-0.287-0.96
	c-0.081-0.27,0.066-0.543,0.337-0.624l2.611-0.781l-1.364-4.562l-2.611,0.78c-0.271,0.081-0.543-0.066-0.624-0.336l-0.287-0.96
	c-0.081-0.27,0.066-0.543,0.337-0.624l3.571-1.067c0.541-0.162,1.095,0.163,1.248,0.673l3.867,12.936
	c0.162,0.54-0.133,1.086-0.673,1.248l-3.572,1.068c-0.27,0.081-0.543-0.067-0.624-0.337l-0.287-0.96
	c-0.081-0.27,0.066-0.543,0.336-0.624L206.829,299.839z"/>
<path fill="#D6DDE0" d="M190.166,300.755c-0.209-1.013-0.001-2.016,0.541-2.8c-0.808-0.504-1.391-1.312-1.601-2.325l-0.946-4.572
	c-0.051-0.246,0.113-0.536,0.389-0.593l0.982-0.203c0.276-0.057,0.542,0.144,0.593,0.39l0.946,4.572
	c0.178,0.859,1.029,1.419,1.889,1.241l1.565-0.324l-1.27-6.137c-0.051-0.246,0.144-0.542,0.389-0.593l0.982-0.203
	c0.276-0.057,0.542,0.144,0.593,0.39l2.837,13.716c0.114,0.552-0.227,1.071-0.779,1.185l-2.547,0.527
	c-1.964,0.406-3.859-0.866-4.259-2.799L190.166,300.755z M192.434,301.822c0.178,0.859,1.029,1.419,1.889,1.241l1.565-0.324
	l-0.958-4.634l-1.565,0.324c-0.859,0.178-1.419,1.03-1.235,1.919L192.434,301.822z"/>
<path fill="#D6DDE0" d="M177.196,304.001l-1.257-11.305c-0.031-0.28,0.163-0.522,0.443-0.554l0.997-0.111
	c0.28-0.031,0.523,0.163,0.554,0.443l0.689,6.197l3.208-0.356l-0.689-6.198c-0.031-0.28,0.163-0.522,0.443-0.554l0.997-0.111
	c0.28-0.031,0.522,0.163,0.554,0.443l1.257,11.305c0.218,1.962-1.221,3.762-3.214,3.983
	C179.214,307.403,177.415,305.964,177.196,304.001z M179.189,303.78c0.097,0.872,0.893,1.509,1.765,1.412
	c0.903-0.101,1.54-0.896,1.443-1.769l-0.347-3.114l-3.208,0.356L179.189,303.78z"/>
<path fill="#D6DDE0" d="M165.825,303.491l0.021,1.065c0.017,0.877,0.75,1.584,1.628,1.567c0.877-0.017,1.584-0.751,1.567-1.628
	l-0.158-8.302c-0.017-0.877-0.751-1.584-1.628-1.567c-0.877,0.017-1.584,0.75-1.567,1.628l0.022,1.159
	c0.005,0.282-0.21,0.505-0.492,0.511l-1.002,0.019c-0.282,0.005-0.505-0.209-0.511-0.492l-0.022-1.159
	c-0.038-1.974,1.561-3.634,3.534-3.671c2.005-0.038,3.633,1.56,3.671,3.534l0.158,8.302c0.037,1.974-1.529,3.633-3.534,3.671
	c-1.974,0.038-3.634-1.561-3.671-3.534l-0.021-1.065c-0.005-0.282,0.21-0.505,0.492-0.511l1.002-0.019
	C165.596,302.994,165.819,303.209,165.825,303.491z"/>
<path fill="#D6DDE0" d="M153.356,307.262l0.058-1.001c0.016-0.282,0.248-0.488,0.529-0.472l1.408,0.082l0.754-12.981
	c0.014-0.25,0.248-0.488,0.529-0.472l1.001,0.058c0.282,0.016,0.486,0.279,0.472,0.53l-0.754,12.981l1.408,0.082
	c0.282,0.016,0.488,0.248,0.472,0.529l-0.058,1.001c-0.017,0.282-0.248,0.488-0.53,0.472l-4.817-0.28
	C153.546,307.775,153.34,307.543,153.356,307.262z"/>
<path fill="#D6DDE0" d="M147.8,292.102c0.034-0.28,0.278-0.471,0.558-0.437l0.995,0.122c0.28,0.034,0.471,0.278,0.437,0.558
	l-1.759,14.398c-0.034,0.28-0.278,0.471-0.559,0.437l-0.995-0.122c-0.249-0.03-0.471-0.278-0.437-0.558L147.8,292.102z"/>
<path fill="#D6DDE0" d="M132.792,304.207l1.898-9.558c0.14-0.707,0.49-1.34,0.974-1.851l2.24-2.59
	c0.123-0.135,0.294-0.197,0.479-0.16l1.721,0.342c0.185,0.037,0.32,0.159,0.381,0.331l1.08,3.25
	c0.253,0.657,0.334,1.375,0.193,2.083l-1.898,9.558c-0.055,0.276-0.313,0.449-0.589,0.394l-0.983-0.195
	c-0.277-0.055-0.449-0.313-0.394-0.589l1.898-9.558c0.037-0.185,0.037-0.344,0.006-0.51l-0.95-2.936l-2.031,2.344
	c-0.062,0.147-0.123,0.295-0.159,0.479l-1.898,9.558c-0.055,0.276-0.343,0.443-0.589,0.394l-0.983-0.195
	C132.909,304.741,132.737,304.483,132.792,304.207z"/>
<path fill="#D6DDE0" d="M125.027,300.701l1.322-4.543l-2.618-0.762c-0.271-0.079-0.42-0.351-0.341-0.622l0.28-0.963
	c0.079-0.271,0.351-0.42,0.622-0.341l2.618,0.762l1.332-4.574l-2.618-0.762c-0.271-0.079-0.42-0.351-0.341-0.622l0.28-0.963
	c0.079-0.271,0.351-0.42,0.621-0.341l3.581,1.042c0.542,0.158,0.832,0.731,0.683,1.243l-3.775,12.969
	c-0.158,0.542-0.702,0.84-1.243,0.683l-3.581-1.042c-0.271-0.079-0.42-0.351-0.341-0.622l0.28-0.963
	c0.079-0.271,0.351-0.42,0.622-0.341L125.027,300.701z"/>
<path fill="#D6DDE0" d="M105.285,290.582l-0.437,0.972c-0.36,0.8,0.002,1.753,0.802,2.113s1.753-0.002,2.113-0.802
	c0.167-0.372,0.167-0.372,0.133-0.524l-1.608-7.044c-0.275-1.223-0.275-1.223,0.136-2.138c0.809-1.8,2.963-2.619,4.764-1.809
	c1.8,0.81,2.619,2.964,1.809,4.764l-0.437,0.972c-0.115,0.257-0.405,0.368-0.663,0.252l-0.915-0.411
	c-0.257-0.116-0.367-0.406-0.252-0.663l0.437-0.972c0.36-0.8-0.002-1.753-0.802-2.113s-1.753,0.002-2.113,0.802
	c-0.167,0.372-0.167,0.372-0.133,0.524l1.608,7.044c0.275,1.223,0.275,1.223-0.136,2.138c-0.81,1.8-2.963,2.619-4.764,1.809
	c-1.8-0.81-2.619-2.963-1.809-4.764l0.437-0.972c0.115-0.257,0.405-0.367,0.663-0.252l0.915,0.411
	C105.291,290.035,105.4,290.325,105.285,290.582z"/>
<path fill="#D6DDE0" d="M91.489,284.564l4.068-7.203c0.986-1.746,3.207-2.363,4.925-1.393c1.746,0.986,2.363,3.207,1.377,4.953
	l-4.068,7.203c-0.971,1.719-3.191,2.336-4.937,1.35C91.136,288.503,90.518,286.283,91.489,284.564z M93.235,285.551
	c-0.432,0.764-0.159,1.746,0.605,2.178c0.791,0.447,1.773,0.174,2.205-0.59l4.068-7.203c0.447-0.791,0.174-1.773-0.617-2.22
	c-0.764-0.431-1.746-0.158-2.193,0.633L93.235,285.551z"/>
<path fill="#D6DDE0" d="M87.897,269.798l0.566-0.828c0.141-0.207,0.464-0.29,0.697-0.131l3.052,2.087
	c0.465,0.318,0.562,0.954,0.262,1.394l-7.905,11.561c-0.159,0.232-0.464,0.29-0.697,0.131l-0.828-0.566
	c-0.207-0.142-0.29-0.464-0.131-0.697l7.339-10.733l-2.224-1.521C87.795,270.336,87.738,270.031,87.897,269.798z"/>
<path fill="#D6DDE0" d="M70.546,273.455l7.129-8.862c1.257-1.562,3.547-1.811,5.085-0.574c1.562,1.257,1.811,3.548,0.554,5.11
	l-7.129,8.862c-0.177,0.22-0.509,0.233-0.705,0.076l-0.781-0.628c-0.22-0.177-0.253-0.485-0.077-0.705l7.129-8.862
	c0.569-0.708,0.459-1.721-0.249-2.291c-0.684-0.55-1.697-0.44-2.266,0.268l-7.129,8.862c-0.177,0.22-0.485,0.253-0.705,0.077
	l-0.781-0.628C70.403,273.983,70.37,273.675,70.546,273.455z"/>
<path fill="#D6DDE0" d="M61.768,265.414l0.693-0.724c0.195-0.204,0.505-0.21,0.708-0.016l1.019,0.975l8.992-9.391
	c0.173-0.181,0.505-0.21,0.708-0.015l0.724,0.693c0.204,0.195,0.188,0.528,0.016,0.708l-8.992,9.391l1.018,0.975
	c0.204,0.195,0.21,0.505,0.016,0.709l-0.693,0.724c-0.195,0.204-0.505,0.21-0.709,0.015l-3.485-3.337
	C61.58,265.927,61.573,265.617,61.768,265.414z"/>
<path fill="#D6DDE0" d="M67.362,250.27c0.208-0.191,0.518-0.178,0.708,0.029l0.679,0.738c0.191,0.208,0.178,0.518-0.029,0.708
	l-10.675,9.827c-0.208,0.191-0.518,0.178-0.708-0.029l-0.679-0.738c-0.17-0.185-0.178-0.518,0.029-0.708L67.362,250.27z"/>
<path fill="#D6DDE0" d="M50.461,247.814l6.485-5.136c1.572-1.245,3.861-0.979,5.087,0.568c1.245,1.572,0.979,3.861-0.593,5.106
	l-6.485,5.136c-1.548,1.226-3.837,0.959-5.082-0.613C48.647,251.329,48.913,249.04,50.461,247.814z M51.706,249.386
	c-0.688,0.545-0.806,1.558-0.261,2.245c0.564,0.712,1.577,0.83,2.265,0.286l6.485-5.136c0.712-0.564,0.83-1.577,0.266-2.289
	c-0.545-0.688-1.558-0.806-2.27-0.241L51.706,249.386z"/>
<path fill="#D6DDE0" d="M42.897,236.769l9.564-6.215c0.21-0.137,0.54-0.089,0.694,0.147l0.546,0.841
	c0.153,0.236,0.063,0.557-0.147,0.693l-9.564,6.215c-0.735,0.478-0.947,1.475-0.469,2.211c0.495,0.762,1.492,0.974,2.228,0.496
	l9.564-6.215c0.21-0.137,0.54-0.089,0.693,0.147l0.546,0.841c0.154,0.237,0.063,0.557-0.147,0.694l-9.564,6.215
	c-1.655,1.076-3.91,0.597-5.002-1.084C40.763,240.099,41.242,237.845,42.897,236.769z"/>
<path fill="#D6DDE0" d="M38.427,226.647l-0.943,0.497c-0.776,0.409-1.078,1.382-0.669,2.159c0.409,0.776,1.382,1.078,2.159,0.669
	c0.36-0.19,0.36-0.19,0.427-0.332l3.072-6.541c0.537-1.132,0.537-1.132,1.424-1.6c1.747-0.92,3.947-0.238,4.868,1.509
	c0.92,1.747,0.237,3.948-1.509,4.868l-0.943,0.497c-0.25,0.131-0.545,0.04-0.677-0.21l-0.467-0.887
	c-0.131-0.25-0.04-0.546,0.21-0.677l0.943-0.497c0.776-0.409,1.078-1.382,0.669-2.159c-0.409-0.776-1.383-1.078-2.159-0.669
	c-0.361,0.189-0.361,0.189-0.428,0.331l-3.072,6.541c-0.537,1.133-0.537,1.133-1.424,1.6c-1.747,0.92-3.948,0.237-4.868-1.509
	s-0.238-3.948,1.509-4.868l0.943-0.497c0.25-0.131,0.546-0.04,0.677,0.21l0.467,0.887C38.769,226.22,38.677,226.516,38.427,226.647z
	"/>
<linearGradient id="SVGID_1_" gradientUnits="userSpaceOnUse" x1="164.4741" y1="38.7119" x2="164.4741" y2="284.7203">
	<stop  offset="0" style="stop-color:#AEBDCD"/>
	<stop  offset="1" style="stop-color:#74879C"/>
</linearGradient>
<path fill="url(#SVGID_1_)" d="M287.478,161.716c0-67.934-55.071-123.004-123.004-123.004S41.47,93.783,41.47,161.716
	c0,2.522,0.084,5.025,0.235,7.508c6.151-10.685,13.386-21.959,18.188-27.96c6.092-7.616,16.753-14.578,20.669-18.93
	s14.143-16.536,16.318-20.888c2.175-4.351,6.745-29.808,9.356-31.983c2.61-2.176,7.868-3.699,12.094-3.917
	c4.224-0.217,9.881-1.957,10.099,2.611c0.218,4.569-7.397,10.227-8.268,13.272c-0.871,3.046-1.821,5.852-0.712,5.897
	c0.35,0.014,1.609,0.551,2.09-0.458c2.32-4.859,8.417-14.069,12.982-17.406c5.657-4.134,12.185-3.046,17.188-1.523
	c5.004,1.523,9.138,2.611,8.269,4.787c-0.871,2.176-16.754,5.657-17.188,9.573c-0.076,0.675-0.644,2.773,0.508,2.684
	c8.34-0.652,22.249,0.277,24.948,1.016c6.627,1.81,26.762,10.661,33.072,13.055c6.31,2.393,12.393,2.175,15.335,4.134
	c1.192,0.794,1.357,2.593,1.162,4.649c11.054,0.233,33.722-1.557,36.332,0.53c2.902,2.321,2.901,24.658,0,31.912
	c-2.9,7.252-21.208,33.91-27.3,38.843c-6.092,4.932-15.956,12.765-24.949,13.055c-0.362,2.828-4.497,9.139-4.713,14.143
	c-0.218,5.004-0.009,25.924,19.465,66.809C258.496,253.497,287.478,210.994,287.478,161.716z"/>
<linearGradient id="SVGID_2_" gradientUnits="userSpaceOnUse" x1="129.9399" y1="65.0776" x2="129.9399" y2="292.3418">
	<stop  offset="0" style="stop-color:#8192A3"/>
	<stop  offset="1" style="stop-color:#4E5F75"/>
</linearGradient>
<path fill="url(#SVGID_2_)" d="M197.329,206.356c0.217-5.005,4.352-11.314,4.713-14.143c-8.993,0.289-19.437-9.574-22.917-21.469
	c-3.482-11.894-5.512-30.46-2.611-38.583c1.359-3.805,7.543-10.443,11.314-13.055c3.771-2.611,18.565-9.863,26.979-11.314
	c0.845,0.029,1.918,0.056,3.152,0.082c0.196-2.058,0.031-3.856-1.162-4.65c-2.941-1.958-9.025-1.74-15.335-4.134
	c-6.309-2.394-26.444-11.245-33.071-13.055c-2.7-0.737-16.608-1.668-24.949-1.016c-1.151,0.09-0.583-2.009-0.508-2.684
	c0.435-3.917,16.318-7.397,17.188-9.573c0.871-2.175-3.264-3.264-8.268-4.787c-5.004-1.522-11.532-2.611-17.188,1.523
	c-4.566,3.336-10.662,12.547-12.982,17.406c-0.482,1.009-1.741,0.472-2.091,0.458c-1.108-0.045-0.158-2.852,0.712-5.897
	c0.871-3.047,8.486-8.703,8.268-13.272c-0.217-4.568-5.874-2.829-10.099-2.61c-4.225,0.218-9.482,1.74-12.094,3.916
	s-7.18,27.632-9.356,31.984c-2.175,4.351-12.402,16.535-16.318,20.887s-14.577,11.313-20.669,18.929
	c-4.802,6.003-12.036,17.276-18.188,27.962c3.882,64.436,57.358,115.495,122.769,115.495c18.654,0,36.335-4.16,52.176-11.592
	C197.321,232.28,197.111,211.36,197.329,206.356z"/>
<linearGradient id="SVGID_3_" gradientUnits="userSpaceOnUse" x1="215.731" y1="106.6143" x2="215.731" y2="192.2197">
	<stop  offset="0" style="stop-color:#BCC8D1"/>
	<stop  offset="1" style="stop-color:#ADBAC9"/>
</linearGradient>
<path fill="url(#SVGID_3_)" d="M233.985,122.329c-0.579-5.803,4.298-5.926,11.604-8.993c5.372-2.254,6.813-4.084,8.892-4.734
	c-0.062-0.07-0.124-0.146-0.189-0.197c-1.002-0.801-5.25-1.325-10.731-1.681c-8.804-0.57-18.788,1.294-25.601,1.151
	c-1.234-0.026-2.307-0.053-3.152-0.082c-8.414,1.451-23.209,8.703-26.979,11.314c-3.771,2.611-9.956,9.25-11.314,13.055
	c-2.9,8.123-0.871,26.689,2.611,38.583c3.481,11.895,13.925,21.758,22.917,21.469c8.993-0.29,18.857-8.122,24.949-13.055
	c6.092-4.932,24.4-31.591,27.3-38.844c1.089-2.725,1.77-7.58,2.042-12.703c-2.852,0.951-7.044,2.841-12.363,2.841
	C238.29,130.453,234.565,128.131,233.985,122.329z"/>
<linearGradient id="SVGID_4_" gradientUnits="userSpaceOnUse" x1="245.2031" y1="108.4976" x2="245.2031" y2="130.4527">
	<stop  offset="0" style="stop-color:#8493A1"/>
	<stop  offset="1" style="stop-color:#788B9E"/>
</linearGradient>
<path fill="url(#SVGID_4_)" d="M254.481,108.601c-2.079,0.65-3.52,2.48-8.892,4.734c-7.306,3.067-12.183,3.19-11.604,8.993
	c0.58,5.803,4.304,8.124,9.985,8.124c5.319,0,9.511-1.89,12.363-2.841C256.767,119.408,256.149,110.527,254.481,108.601z"/>
<path id="eye_2_" fill="none" stroke="#D6DDE0" stroke-miterlimit="10" d="M127.375,110.5c8.75,5,30.5,4.625,37.099,0.595
	C158.097,115.193,136.185,115.731,127.375,110.5z"/>
</svg>
