<?xml version="1.0" encoding="utf-8"?>
<!-- Generator: Adobe Illustrator 15.0.2, SVG Export Plug-In  -->
<!DOCTYPE svg PUBLIC "-//W3C//DTD SVG 1.1//EN" "http://www.w3.org/Graphics/SVG/1.1/DTD/svg11.dtd" [
	<!ENTITY ns_flows "http://ns.adobe.com/Flows/1.0/">
]>
<svg version="1.1"
	 xmlns="http://www.w3.org/2000/svg" xmlns:xlink="http://www.w3.org/1999/xlink" xmlns:a="http://ns.adobe.com/AdobeSVGViewerExtensions/3.0/"
	 x="0px" y="0px" width="350px" height="350px" viewBox="-14.828 -25.636 350 350"
	 overflow="visible" enable-background="new -14.828 -25.636 350 350" xml:space="preserve">
<defs>
</defs>
<linearGradient id="outer_circle_3_" gradientUnits="userSpaceOnUse" x1="156.0859" y1="0" x2="156.0859" y2="309.4233">
	<stop  offset="0" style="stop-color:#8F9AA8"/>
	<stop  offset="1" style="stop-color:#3D4857"/>
</linearGradient>
<path id="outer_circle_2_" fill="url(#outer_circle_3_)" fill-opacity="0.15" d="M311.798,135.046
	c2.645,13.768-9.595,20.637-9.595,33.431c0,12.797,6.396,21.873,2.682,32.296c-3.713,10.422-14.961,14.445-21.46,25.898
	c-6.501,11.456-2.442,20.532-10.767,29.82c-8.32,9.288-18.124,6.019-29.166,14.72c-11.04,8.7-12.896,16.955-20.737,22.22
	c-7.844,5.261-23.734,0.929-34.978,2.68c-11.249,1.756-19.709,13.21-31.779,13.312c-12.071,0.104-18.576-11.35-30.439-13.103
	c-11.863-1.756-22.083,2.681-32.917-0.929c-10.833-3.612-14.132-16.509-22.387-22.804c-8.255-6.293-22.735-8.461-30.924-15.786
	c-8.181-7.326-3.434-17.747-10.14-29.096c-6.712-11.352-18.677-15.994-22.704-28.172c-4.027-12.171,3.507-17.228,2.997-28.372
	c-0.519-11.143-10.531-24.248-9.393-35.287c1.138-11.042,9.702-12.795,14.341-24.764c4.646-11.971,0.209-27.032,5.057-35.807
	c4.847-8.767,20.427-12.482,27.443-21.356c7.022-8.875,5.784-17.438,15.068-25.484c9.285-8.054,24.659-4.235,34.258-9.29
	c9.594-5.052,14.863-15.993,26.468-18.672c11.604-2.687,18.349,6.292,33.294,6.086c14.939-0.209,16.59-8.332,32.169-5.97
	c15.58,2.355,16.099,14.225,29.201,19.792c13.102,5.576,19.916-1.545,30.645,5.475c10.729,7.016,9.492,20.428,17.747,28.683
	c8.254,8.254,18.885,9.078,25.691,18.986c6.812,9.905,0.929,20.637,4.646,33.016C299.83,118.952,309.175,121.382,311.798,135.046z"
	/>
</svg>
